<svg xmlns="http://www.w3.org/2000/svg" xmlns:xlink="http://www.w3.org/1999/xlink" width="236" zoomAndPan="magnify" viewBox="0 0 375 374.999991" height="500" preserveAspectRatio="xMidYMid meet" version="1.0"><defs><g/></defs><g fill="rgb(0%, 0%, 0%)" fill-opacity="1"><g transform="translate(59.976776, 191.031269)"><g><path d="M 33.972656 -1.058594 C 33.867188 -1.058594 33.816406 -1.058594 33.816406 -1.109375 C 33.816406 -1.214844 33.816406 -1.320312 33.867188 -1.480469 C 33.921875 -1.636719 33.972656 -1.742188 34.027344 -1.847656 C 34.132812 -1.796875 34.1875 -1.742188 34.1875 -1.691406 C 34.1875 -1.636719 34.1875 -1.53125 34.132812 -1.425781 C 34.082031 -1.320312 34.027344 -1.214844 33.972656 -1.164062 C 33.972656 -1.214844 34.027344 -1.269531 34.082031 -1.269531 C 34.132812 -1.269531 34.1875 -1.320312 34.1875 -1.375 L 34.1875 -1.53125 C 34.34375 -1.585938 34.449219 -1.691406 34.554688 -1.796875 C 34.660156 -1.902344 34.714844 -2.0625 34.714844 -2.21875 L 34.714844 -2.324219 C 34.714844 -2.273438 34.820312 -2.378906 34.980469 -2.640625 C 35.136719 -2.90625 35.347656 -3.222656 35.558594 -3.644531 C 35.769531 -4.070312 35.984375 -4.492188 36.246094 -4.964844 C 36.511719 -5.441406 36.722656 -5.8125 36.878906 -6.078125 L 37.410156 -7.132812 C 37.671875 -7.609375 37.9375 -8.191406 38.203125 -8.875 C 38.464844 -9.5625 38.675781 -10.304688 38.886719 -11.097656 C 39.101562 -11.886719 39.207031 -12.679688 39.207031 -13.472656 C 39.207031 -13.84375 39.152344 -14.214844 39.046875 -14.53125 C 39.046875 -14.476562 38.996094 -14.53125 38.886719 -14.6875 C 38.78125 -14.847656 38.675781 -15.007812 38.570312 -15.164062 C 38.464844 -15.324219 38.359375 -15.480469 38.253906 -15.640625 C 38.148438 -15.796875 38.042969 -15.851562 37.992188 -15.851562 C 38.042969 -15.851562 37.992188 -15.902344 37.832031 -16.011719 C 37.671875 -16.117188 37.515625 -16.222656 37.304688 -16.378906 C 37.09375 -16.539062 36.878906 -16.644531 36.617188 -16.75 C 36.351562 -16.855469 36.140625 -16.90625 35.984375 -16.90625 L 35.929688 -16.90625 C 35.769531 -16.960938 35.613281 -17.015625 35.507812 -17.015625 C 35.402344 -17.015625 35.296875 -17.015625 35.242188 -17.015625 L 34.34375 -17.015625 C 34.1875 -17.015625 33.972656 -16.960938 33.761719 -16.90625 C 33.550781 -16.855469 33.339844 -16.695312 33.128906 -16.484375 C 33.128906 -16.433594 33.128906 -16.378906 33.183594 -16.328125 C 33.183594 -16.273438 33.078125 -16.167969 32.863281 -16.011719 C 32.652344 -15.851562 32.441406 -15.640625 32.179688 -15.429688 L 31.386719 -14.792969 C 31.121094 -14.582031 30.910156 -14.425781 30.75 -14.320312 C 30.59375 -14.160156 30.328125 -13.949219 30.011719 -13.683594 C 29.695312 -13.421875 29.324219 -13.105469 28.953125 -12.785156 C 28.585938 -12.46875 28.214844 -12.101562 27.84375 -11.730469 C 27.476562 -11.359375 27.210938 -10.988281 27.054688 -10.671875 C 27.054688 -10.726562 27.054688 -10.726562 27.054688 -10.726562 C 27.054688 -10.726562 27.054688 -10.777344 27.054688 -10.832031 C 26.945312 -10.566406 26.839844 -10.355469 26.734375 -10.199219 C 26.683594 -10.039062 26.578125 -9.933594 26.472656 -9.828125 C 26.367188 -9.722656 26.261719 -9.667969 26.207031 -9.667969 C 26.050781 -9.617188 25.835938 -9.457031 25.574219 -9.195312 C 25.308594 -8.929688 24.992188 -8.613281 24.675781 -8.296875 C 24.359375 -7.976562 24.042969 -7.714844 23.777344 -7.449219 C 23.511719 -7.1875 23.300781 -7.082031 23.144531 -7.082031 C 23.089844 -7.082031 23.039062 -7.082031 22.984375 -7.132812 C 23.355469 -7.714844 23.671875 -8.347656 23.988281 -9.035156 C 24.304688 -9.722656 24.570312 -10.410156 24.832031 -11.097656 C 24.886719 -11.359375 25.046875 -11.730469 25.363281 -12.207031 C 25.679688 -12.679688 25.996094 -13.210938 26.3125 -13.84375 C 26.628906 -14.476562 26.894531 -15.164062 27.160156 -15.957031 C 27.421875 -16.75 27.527344 -17.59375 27.527344 -18.492188 C 27.476562 -18.386719 27.421875 -18.28125 27.421875 -18.175781 C 27.421875 -18.070312 27.371094 -17.964844 27.316406 -17.859375 C 27.265625 -17.910156 27.210938 -17.910156 27.105469 -17.910156 C 27.160156 -17.964844 27.160156 -18.070312 27.160156 -18.230469 C 27.160156 -18.386719 27.160156 -18.546875 27.160156 -18.703125 L 27.160156 -18.914062 C 27.210938 -19.074219 27.210938 -19.179688 27.210938 -19.285156 C 27.210938 -19.390625 27.210938 -19.496094 27.210938 -19.65625 L 27.210938 -19.867188 C 27.160156 -19.8125 27.160156 -19.761719 27.160156 -19.707031 C 27.105469 -19.761719 27.054688 -19.917969 27 -20.238281 C 26.945312 -20.554688 26.894531 -20.765625 26.894531 -20.816406 C 26.894531 -20.921875 26.894531 -21.03125 26.945312 -21.082031 C 26.894531 -21.082031 26.894531 -21.082031 26.894531 -21.136719 L 26.894531 -21.242188 C 26.839844 -21.1875 26.789062 -21.082031 26.734375 -20.921875 L 26.628906 -21.082031 C 26.628906 -21.136719 26.628906 -21.1875 26.628906 -21.242188 C 26.628906 -21.1875 26.628906 -21.1875 26.578125 -21.292969 C 26.523438 -21.398438 26.417969 -21.503906 26.261719 -21.664062 C 26.101562 -21.820312 25.890625 -21.980469 25.625 -22.140625 C 25.363281 -22.296875 24.992188 -22.351562 24.515625 -22.351562 C 23.511719 -22.351562 22.613281 -22.085938 21.820312 -21.558594 C 21.03125 -21.03125 20.183594 -20.449219 19.285156 -19.867188 C 18.492188 -19.074219 17.804688 -18.386719 17.226562 -17.859375 C 16.644531 -17.332031 15.957031 -16.695312 15.164062 -16.011719 C 15.21875 -16.0625 15.21875 -16.117188 15.21875 -16.167969 C 15.21875 -16.222656 15.21875 -16.273438 15.269531 -16.328125 C 15.535156 -17.015625 15.796875 -17.804688 16.117188 -18.703125 C 16.433594 -19.601562 16.800781 -20.605469 17.171875 -21.714844 C 17.226562 -21.925781 17.382812 -22.351562 17.59375 -22.929688 C 17.804688 -23.511719 17.910156 -24.09375 17.910156 -24.675781 C 17.910156 -24.78125 17.910156 -24.886719 17.910156 -24.992188 C 17.910156 -25.097656 17.910156 -25.203125 17.910156 -25.308594 C 17.910156 -25.363281 17.910156 -25.414062 17.910156 -25.519531 C 17.910156 -25.625 17.910156 -25.730469 17.910156 -25.835938 L 17.910156 -26.789062 C 17.910156 -26.839844 17.910156 -26.945312 17.910156 -27.105469 C 17.910156 -27.265625 17.859375 -27.476562 17.804688 -27.6875 C 17.753906 -27.898438 17.648438 -28.109375 17.542969 -28.320312 C 17.4375 -28.53125 17.277344 -28.691406 17.121094 -28.847656 L 17.121094 -28.902344 C 17.121094 -29.0625 17.015625 -29.273438 16.800781 -29.535156 C 16.589844 -29.800781 16.433594 -30.011719 16.273438 -30.171875 C 16.011719 -30.433594 15.746094 -30.699219 15.480469 -30.910156 C 15.21875 -31.070312 14.953125 -31.226562 14.6875 -31.386719 C 14.425781 -31.542969 14.214844 -31.597656 14.003906 -31.597656 C 13.527344 -31.597656 13.105469 -31.4375 12.785156 -31.175781 C 12.46875 -30.910156 12.152344 -30.488281 11.835938 -29.90625 C 11.519531 -29.324219 11.148438 -28.585938 10.777344 -27.6875 C 10.410156 -26.789062 9.984375 -25.730469 9.511719 -24.515625 C 8.71875 -22.507812 7.871094 -20.449219 7.027344 -18.335938 L 4.492188 -11.996094 C 4.226562 -11.414062 3.910156 -10.726562 3.539062 -9.933594 C 3.277344 -9.246094 2.957031 -8.402344 2.589844 -7.398438 C 2.21875 -6.394531 1.847656 -5.285156 1.480469 -4.070312 C 1.425781 -3.910156 1.320312 -3.644531 1.214844 -3.328125 C 1.109375 -3.011719 1.003906 -2.695312 0.898438 -2.324219 C 0.792969 -1.953125 0.6875 -1.585938 0.582031 -1.269531 C 0.476562 -0.949219 0.421875 -0.6875 0.421875 -0.527344 C 0.421875 -0.316406 0.527344 -0.105469 0.792969 0.0546875 C 1.058594 0.210938 1.269531 0.371094 1.425781 0.527344 C 1.480469 0.527344 1.53125 0.527344 1.585938 0.476562 C 1.636719 0.476562 1.691406 0.527344 1.691406 0.582031 C 1.691406 0.632812 1.691406 0.6875 1.742188 0.738281 C 1.796875 0.792969 1.796875 0.792969 1.796875 0.738281 L 1.796875 0.6875 C 2.0625 0.949219 2.273438 1.109375 2.429688 1.164062 C 2.589844 1.214844 2.800781 1.214844 3.066406 1.214844 C 3.382812 1.109375 3.59375 1.058594 3.644531 1.058594 C 3.699219 1.058594 3.75 1.058594 3.804688 1.058594 C 3.855469 1.058594 3.960938 1.003906 4.121094 0.898438 C 4.28125 0.792969 4.597656 0.582031 5.074219 0.265625 C 5.125 0.316406 5.179688 0.371094 5.230469 0.421875 C 5.285156 0.476562 5.335938 0.527344 5.390625 0.582031 C 5.601562 0.105469 5.757812 -0.210938 5.863281 -0.371094 C 5.96875 -0.527344 6.078125 -0.632812 6.183594 -0.6875 L 6.710938 -1.003906 C 6.972656 -1.164062 7.34375 -1.425781 7.820312 -1.796875 C 7.871094 -1.742188 7.871094 -1.691406 7.871094 -1.691406 C 7.871094 -1.691406 7.871094 -1.636719 7.925781 -1.585938 C 7.925781 -1.53125 7.925781 -1.53125 7.976562 -1.53125 C 8.03125 -1.585938 8.085938 -1.585938 8.136719 -1.585938 C 8.191406 -1.585938 8.242188 -1.585938 8.296875 -1.636719 C 8.402344 -1.636719 8.558594 -1.691406 8.769531 -1.847656 C 8.980469 -2.007812 9.195312 -2.167969 9.40625 -2.378906 C 9.617188 -2.589844 9.828125 -2.800781 9.984375 -3.066406 C 10.144531 -3.328125 10.25 -3.59375 10.25 -3.855469 L 10.25 -3.960938 L 10.410156 -4.121094 C 10.882812 -5.019531 11.308594 -5.96875 11.675781 -6.972656 C 12.046875 -7.976562 12.574219 -9.035156 13.316406 -10.144531 C 13.261719 -10.09375 13.367188 -10.199219 13.578125 -10.460938 C 13.789062 -10.726562 14.054688 -11.097656 14.371094 -11.519531 C 14.6875 -11.941406 15.007812 -12.417969 15.375 -13 C 15.746094 -13.578125 16.0625 -14.160156 16.328125 -14.742188 C 16.695312 -15.269531 17.171875 -15.746094 17.804688 -16.167969 C 18.441406 -16.589844 18.863281 -17.015625 19.128906 -17.488281 L 19.128906 -17.4375 C 19.601562 -17.699219 20.078125 -17.964844 20.5 -18.230469 C 20.921875 -18.492188 21.347656 -18.757812 21.820312 -19.023438 C 21.820312 -18.96875 21.820312 -18.96875 21.875 -18.96875 C 21.769531 -18.757812 21.664062 -18.546875 21.558594 -18.28125 C 21.453125 -18.019531 21.347656 -17.804688 21.242188 -17.59375 C 21.1875 -17.488281 21.03125 -17.277344 20.816406 -16.960938 C 20.605469 -16.644531 20.394531 -16.273438 20.132812 -15.851562 C 19.867188 -15.429688 19.601562 -14.953125 19.390625 -14.476562 C 19.179688 -14.003906 19.023438 -13.527344 18.914062 -13.050781 C 18.492188 -12.363281 18.125 -11.625 17.804688 -10.882812 C 17.488281 -10.144531 17.171875 -9.351562 16.90625 -8.558594 C 16.855469 -8.347656 16.695312 -8.03125 16.484375 -7.554688 C 16.273438 -7.082031 16.011719 -6.550781 15.746094 -5.96875 C 15.480469 -5.390625 15.269531 -4.753906 15.058594 -4.070312 C 14.847656 -3.382812 14.742188 -2.695312 14.742188 -2.007812 C 14.742188 -1.847656 14.792969 -1.636719 14.847656 -1.375 C 14.898438 -1.269531 14.953125 -1.109375 15.007812 -0.898438 C 15.058594 -0.6875 15.113281 -0.476562 15.164062 -0.265625 C 15.21875 -0.0546875 15.324219 0.105469 15.429688 0.265625 C 15.535156 0.421875 15.640625 0.476562 15.796875 0.476562 L 15.691406 0.6875 C 15.640625 0.632812 15.640625 0.632812 15.640625 0.632812 C 15.640625 0.632812 15.640625 0.632812 15.585938 0.582031 C 15.535156 0.632812 15.535156 0.6875 15.535156 0.738281 C 15.535156 0.84375 15.640625 0.949219 15.851562 1.003906 C 16.0625 1.058594 16.273438 1.109375 16.539062 1.109375 C 16.800781 1.109375 17.066406 1.109375 17.332031 1.109375 L 17.910156 1.109375 C 17.859375 1.109375 17.910156 1.058594 18.070312 1.003906 C 18.230469 0.949219 18.386719 0.898438 18.546875 0.792969 C 18.703125 0.6875 18.863281 0.632812 19.023438 0.582031 L 19.234375 0.476562 L 19.339844 0.476562 C 19.390625 0.316406 19.496094 0.210938 19.65625 0.210938 C 19.8125 0.210938 19.917969 0.160156 20.027344 0.105469 C 20.078125 0.265625 20.132812 0.421875 20.183594 0.527344 C 20.238281 0.632812 20.289062 0.6875 20.34375 0.6875 C 20.289062 0.632812 20.238281 0.582031 20.183594 0.476562 C 20.132812 0.371094 20.132812 0.316406 20.132812 0.265625 C 20.132812 0.210938 20.183594 0.160156 20.238281 0.105469 C 20.394531 0 20.5 -0.105469 20.554688 -0.160156 C 20.605469 -0.210938 20.710938 -0.316406 20.871094 -0.527344 L 21.503906 -1.375 C 21.769531 -1.742188 22.191406 -2.324219 22.773438 -3.117188 C 22.929688 -3.382812 23.144531 -3.855469 23.355469 -4.492188 C 23.566406 -5.125 23.933594 -5.601562 24.515625 -5.863281 C 24.464844 -5.917969 24.410156 -5.917969 24.410156 -5.917969 C 24.410156 -5.917969 24.410156 -5.917969 24.410156 -5.96875 L 24.464844 -5.96875 C 24.515625 -5.96875 24.570312 -5.96875 24.621094 -6.023438 C 24.675781 -6.078125 24.726562 -6.078125 24.78125 -6.078125 L 24.886719 -6.078125 C 24.9375 -6.078125 24.992188 -6.128906 24.992188 -6.234375 L 24.992188 -6.339844 C 24.992188 -6.394531 25.097656 -6.445312 25.308594 -6.445312 C 25.257812 -6.5 25.257812 -6.550781 25.257812 -6.65625 C 25.257812 -6.605469 25.257812 -6.605469 25.308594 -6.605469 C 25.785156 -7.082031 26.207031 -7.554688 26.628906 -8.03125 C 27.054688 -8.507812 27.632812 -9.140625 28.375 -9.878906 C 28.425781 -9.933594 28.480469 -9.984375 28.585938 -10.09375 C 28.691406 -10.199219 28.796875 -10.355469 28.902344 -10.515625 C 29.007812 -10.671875 29.113281 -10.832031 29.273438 -10.9375 C 29.429688 -11.042969 29.535156 -11.097656 29.589844 -11.097656 C 29.535156 -11.042969 29.535156 -11.097656 29.640625 -11.203125 C 29.746094 -11.308594 29.851562 -11.414062 29.957031 -11.570312 C 30.066406 -11.730469 30.171875 -11.835938 30.277344 -11.941406 C 30.382812 -12.046875 30.433594 -12.101562 30.488281 -12.101562 L 30.539062 -12.046875 C 30.433594 -12.046875 30.539062 -12.207031 30.910156 -12.574219 C 31.28125 -12.945312 31.808594 -13.367188 32.496094 -13.84375 C 32.546875 -13.894531 32.601562 -13.84375 32.707031 -13.738281 C 32.8125 -13.632812 32.863281 -13.472656 32.863281 -13.316406 L 32.863281 -13.210938 C 32.441406 -11.886719 31.753906 -10.304688 30.855469 -8.507812 C 29.957031 -6.710938 29.007812 -4.542969 28.003906 -2.007812 C 27.949219 -1.953125 27.898438 -1.796875 27.792969 -1.585938 C 27.6875 -1.375 27.582031 -1.164062 27.527344 -0.949219 C 27.476562 -0.738281 27.421875 -0.527344 27.371094 -0.371094 L 27.265625 -0.105469 C 26.789062 0.527344 26.472656 1.320312 26.3125 2.273438 C 26.15625 3.222656 26.050781 4.226562 26.050781 5.230469 C 26.050781 6.234375 26.367188 6.921875 27 7.292969 C 27.632812 7.660156 28.320312 7.871094 29.113281 7.871094 C 29.746094 7.820312 30.277344 7.765625 30.75 7.660156 C 31.226562 7.554688 31.753906 7.34375 32.335938 6.972656 C 32.601562 6.816406 32.917969 6.605469 33.289062 6.289062 C 33.65625 5.96875 34.292969 5.390625 35.136719 4.542969 C 35.03125 4.597656 34.925781 4.648438 34.820312 4.753906 L 34.765625 4.703125 C 34.820312 4.648438 34.871094 4.597656 34.871094 4.492188 C 34.871094 4.386719 34.925781 4.332031 34.980469 4.28125 C 34.980469 4.332031 34.980469 4.386719 35.03125 4.4375 C 35.191406 4.4375 35.296875 4.4375 35.347656 4.386719 C 35.347656 4.332031 35.296875 4.28125 35.191406 4.175781 C 35.242188 4.121094 35.347656 4.070312 35.507812 3.960938 C 35.664062 3.855469 35.71875 3.699219 35.71875 3.433594 L 35.664062 3.382812 C 35.402344 3.433594 35.191406 3.488281 35.03125 3.539062 C 34.765625 3.644531 34.503906 3.855469 34.292969 4.121094 C 34.082031 4.386719 33.816406 4.648438 33.550781 4.914062 C 33.289062 5.179688 33.023438 5.390625 32.707031 5.601562 C 32.390625 5.8125 32.074219 5.917969 31.753906 5.917969 C 31.28125 5.917969 30.960938 5.863281 30.855469 5.8125 C 30.75 5.757812 30.644531 5.601562 30.539062 5.390625 L 30.539062 5.601562 C 30.382812 5.546875 30.277344 5.496094 30.222656 5.441406 C 30.328125 5.335938 30.433594 5.125 30.539062 4.859375 C 30.699219 5.074219 30.804688 5.230469 30.855469 5.285156 C 30.910156 5.335938 31.121094 5.390625 31.492188 5.441406 C 31.226562 5.285156 31.015625 5.125 30.855469 4.964844 C 30.699219 4.808594 30.644531 4.597656 30.644531 4.332031 C 30.644531 4.226562 30.644531 4.121094 30.699219 4.070312 L 30.59375 4.070312 C 30.539062 4.070312 30.539062 4.070312 30.539062 4.015625 C 30.539062 3.960938 30.59375 3.910156 30.644531 3.855469 C 30.699219 3.910156 30.75 3.960938 30.804688 4.015625 C 30.804688 3.960938 30.804688 3.910156 30.804688 3.910156 C 30.804688 3.910156 30.804688 3.910156 30.804688 3.855469 C 30.855469 4.015625 30.910156 4.121094 30.910156 4.175781 C 30.960938 4.121094 30.960938 4.070312 30.960938 4.015625 C 30.910156 3.960938 30.855469 3.910156 30.855469 3.855469 C 30.855469 3.804688 30.910156 3.699219 31.015625 3.539062 C 31.121094 3.382812 31.175781 3.222656 31.226562 3.066406 C 31.175781 3.117188 31.121094 3.222656 31.070312 3.328125 C 31.015625 3.433594 30.960938 3.539062 30.910156 3.59375 C 30.855469 3.644531 30.804688 3.644531 30.804688 3.59375 C 30.804688 3.539062 30.804688 3.488281 30.804688 3.433594 C 30.804688 3.277344 30.804688 3.117188 30.855469 2.957031 C 30.910156 2.800781 30.960938 2.695312 31.015625 2.640625 L 31.015625 2.378906 C 31.015625 2.21875 31.070312 2.007812 31.175781 1.691406 C 31.28125 1.375 31.332031 1.109375 31.332031 0.84375 C 31.332031 0.792969 31.332031 0.738281 31.332031 0.6875 C 31.332031 0.632812 31.332031 0.582031 31.332031 0.527344 C 31.332031 0.421875 31.386719 0.371094 31.492188 0.316406 C 31.597656 0.265625 31.648438 0.160156 31.648438 -0.0546875 C 31.808594 0 31.964844 0.0546875 32.125 0.160156 C 32.074219 0.265625 32.019531 0.371094 31.964844 0.527344 C 31.914062 0.6875 31.914062 0.738281 31.914062 0.6875 L 31.914062 1.058594 C 31.914062 1.164062 31.859375 1.269531 31.703125 1.320312 C 31.542969 1.375 31.492188 1.636719 31.492188 2.113281 C 31.492188 2.273438 31.492188 2.378906 31.542969 2.429688 C 31.542969 2.589844 31.492188 2.695312 31.332031 2.695312 C 31.386719 2.746094 31.4375 2.800781 31.492188 2.851562 C 31.542969 2.640625 31.648438 2.378906 31.808594 2.0625 C 31.964844 1.742188 32.074219 1.53125 32.074219 1.480469 C 32.019531 1.425781 31.964844 1.425781 31.914062 1.425781 C 31.964844 1.375 32.019531 1.320312 32.074219 1.269531 C 32.125 1.214844 32.125 1.164062 32.125 1.109375 C 32.074219 1.058594 32.019531 1.003906 32.019531 0.949219 C 32.019531 0.898438 32.074219 0.84375 32.230469 0.792969 L 32.335938 0.898438 C 32.390625 0.898438 32.441406 0.84375 32.441406 0.792969 Z M 33.710938 -1.53125 C 33.65625 -1.585938 33.605469 -1.585938 33.605469 -1.585938 C 33.605469 -1.585938 33.550781 -1.585938 33.5 -1.636719 C 33.550781 -1.691406 33.65625 -1.847656 33.816406 -2.0625 C 33.867188 -2.0625 33.921875 -2.0625 33.972656 -2.007812 C 33.816406 -1.847656 33.761719 -1.691406 33.816406 -1.53125 C 33.867188 -1.375 33.816406 -1.214844 33.65625 -1.058594 L 33.550781 -1.164062 L 33.550781 -1.375 C 33.550781 -1.425781 33.605469 -1.480469 33.65625 -1.480469 Z M 32.074219 -0.898438 C 32.074219 -0.792969 32.074219 -0.632812 32.125 -0.476562 C 32.179688 -0.316406 32.230469 -0.210938 32.285156 -0.160156 C 32.230469 -0.105469 32.179688 -0.0546875 32.125 0 C 32.074219 0.0546875 32.019531 0.105469 31.964844 0.105469 C 31.914062 0.105469 31.914062 0.0546875 31.914062 0 C 31.859375 -0.0546875 31.859375 -0.210938 31.859375 -0.476562 C 31.859375 -0.527344 31.859375 -0.632812 31.914062 -0.738281 C 31.964844 -0.84375 32.019531 -0.898438 32.074219 -0.84375 Z M 32.390625 -1.003906 C 32.285156 -1.058594 32.230469 -1.109375 32.230469 -1.214844 C 32.230469 -1.320312 32.230469 -1.425781 32.230469 -1.53125 C 32.230469 -1.636719 32.230469 -1.742188 32.285156 -1.847656 C 32.335938 -1.796875 32.441406 -1.742188 32.601562 -1.691406 C 32.546875 -1.585938 32.496094 -1.53125 32.441406 -1.480469 C 32.390625 -1.425781 32.390625 -1.375 32.390625 -1.320312 C 32.390625 -1.269531 32.390625 -1.214844 32.441406 -1.164062 C 32.441406 -1.109375 32.441406 -1.109375 32.441406 -1.109375 C 32.441406 -1.109375 32.441406 -1.109375 32.441406 -1.058594 Z M 34.292969 -2.589844 C 34.238281 -2.484375 34.238281 -2.378906 34.238281 -2.273438 C 34.238281 -2.167969 34.1875 -2.113281 34.027344 -2.113281 C 33.972656 -2.167969 33.972656 -2.21875 33.972656 -2.273438 C 33.972656 -2.324219 33.972656 -2.378906 34.027344 -2.484375 C 34.082031 -2.589844 34.132812 -2.589844 34.1875 -2.535156 Z M 35.664062 -6.289062 C 35.613281 -6.183594 35.558594 -6.078125 35.558594 -5.96875 C 35.558594 -5.863281 35.507812 -5.757812 35.453125 -5.601562 C 35.402344 -5.652344 35.402344 -5.707031 35.402344 -5.8125 C 35.402344 -5.917969 35.453125 -6.023438 35.558594 -6.128906 C 35.613281 -6.183594 35.664062 -6.234375 35.71875 -6.289062 Z M 33.5 -3.644531 C 33.339844 -3.699219 33.234375 -3.75 33.234375 -3.804688 L 33.339844 -4.015625 C 33.394531 -3.855469 33.445312 -3.75 33.5 -3.644531 Z M 34.238281 -5.8125 C 34.292969 -5.757812 34.292969 -5.707031 34.292969 -5.652344 C 34.292969 -5.546875 34.238281 -5.496094 34.132812 -5.496094 C 34.132812 -5.601562 34.1875 -5.707031 34.238281 -5.863281 Z M 32.601562 -2.324219 C 32.652344 -2.273438 32.707031 -2.273438 32.757812 -2.273438 C 32.8125 -2.273438 32.863281 -2.273438 32.917969 -2.21875 L 32.8125 -2.113281 Z M 35.402344 3.382812 C 35.453125 3.382812 35.507812 3.382812 35.558594 3.382812 C 35.613281 3.382812 35.664062 3.382812 35.71875 3.382812 C 35.71875 3.328125 35.71875 3.328125 35.71875 3.328125 C 35.71875 3.328125 35.769531 3.328125 35.929688 3.277344 C 35.875 3.222656 35.769531 3.222656 35.613281 3.222656 C 35.453125 3.222656 35.347656 3.277344 35.347656 3.328125 Z M 35.402344 3.382812 "/></g></g></g><g fill="rgb(0%, 0%, 0%)" fill-opacity="1"><g transform="translate(99.971966, 191.031269)"><g><path d="M 21.1875 -6.183594 C 21.136719 -6.183594 20.921875 -6.023438 20.605469 -5.652344 C 20.289062 -5.285156 19.8125 -4.753906 19.128906 -4.070312 C 18.441406 -3.382812 17.964844 -2.90625 17.699219 -2.589844 C 17.4375 -2.273438 17.277344 -2.0625 17.171875 -1.953125 C 17.066406 -1.847656 17.015625 -1.796875 17.015625 -1.796875 C 17.015625 -1.796875 16.90625 -1.796875 16.75 -1.742188 C 16.589844 -1.691406 16.378906 -1.53125 16.167969 -1.320312 C 15.957031 -1.109375 15.691406 -0.898438 15.429688 -0.6875 C 15.164062 -0.476562 14.898438 -0.265625 14.636719 -0.0546875 C 14.371094 0.160156 14.160156 0.316406 14.003906 0.421875 C 13.894531 0.316406 13.84375 0.160156 13.84375 -0.105469 C 13.84375 -0.316406 13.84375 -0.476562 13.894531 -0.632812 C 13.949219 -0.792969 13.949219 -0.949219 13.949219 -1.109375 C 13.894531 -1.269531 13.84375 -1.480469 13.84375 -1.691406 C 13.84375 -1.902344 13.84375 -2.113281 13.84375 -2.273438 C 13.84375 -2.535156 13.84375 -2.746094 13.894531 -2.957031 C 13.949219 -3.171875 13.949219 -3.382812 13.949219 -3.59375 C 13.949219 -3.804688 13.894531 -4.015625 13.84375 -4.226562 C 13.789062 -4.4375 13.738281 -4.648438 13.738281 -4.914062 C 13.738281 -5.179688 13.789062 -5.441406 13.894531 -5.707031 C 14.003906 -5.96875 14.054688 -6.234375 14.054688 -6.5 C 14.003906 -6.550781 13.949219 -6.605469 13.894531 -6.65625 C 13.949219 -6.65625 14.003906 -6.710938 14.109375 -6.867188 C 14.214844 -7.027344 14.265625 -7.1875 14.320312 -7.398438 C 14.371094 -7.609375 14.425781 -7.820312 14.476562 -8.03125 C 14.53125 -8.242188 14.582031 -8.347656 14.636719 -8.402344 C 14.636719 -8.453125 14.636719 -8.507812 14.636719 -8.558594 C 14.636719 -8.613281 14.636719 -8.664062 14.636719 -8.71875 C 14.636719 -8.769531 14.636719 -8.824219 14.636719 -8.824219 C 14.636719 -8.824219 14.636719 -8.875 14.636719 -8.929688 C 14.636719 -9.035156 14.6875 -9.140625 14.792969 -9.300781 C 14.898438 -9.457031 14.953125 -9.5625 14.953125 -9.617188 C 14.953125 -9.667969 14.898438 -9.722656 14.847656 -9.722656 C 14.792969 -9.722656 14.742188 -9.773438 14.742188 -9.933594 L 14.898438 -9.933594 C 14.953125 -9.933594 15.007812 -9.933594 15.058594 -9.984375 L 14.847656 -10.199219 C 14.898438 -10.355469 14.953125 -10.515625 15.007812 -10.726562 C 15.058594 -10.9375 15.058594 -11.148438 15.058594 -11.308594 C 15.058594 -11.359375 15.007812 -11.464844 14.953125 -11.675781 C 14.898438 -11.886719 14.6875 -11.996094 14.320312 -11.996094 C 14.214844 -11.996094 14.109375 -11.996094 14.003906 -11.996094 C 13.894531 -11.996094 13.789062 -11.996094 13.683594 -11.996094 C 13.527344 -11.996094 13.367188 -11.996094 13.210938 -12.046875 C 13.050781 -12.101562 12.890625 -12.101562 12.734375 -12.101562 C 12.574219 -12.101562 12.363281 -11.886719 12.046875 -11.414062 C 11.730469 -10.9375 11.414062 -10.410156 11.042969 -9.773438 C 10.671875 -9.140625 10.304688 -8.453125 9.933594 -7.765625 C 9.5625 -7.082031 9.195312 -6.5 8.875 -6.023438 C 8.558594 -5.496094 8.191406 -4.964844 7.765625 -4.492188 C 7.34375 -4.015625 6.867188 -3.59375 6.394531 -3.277344 C 5.917969 -2.957031 5.441406 -2.695312 5.019531 -2.484375 C 4.597656 -2.273438 4.226562 -2.167969 3.910156 -2.167969 C 3.855469 -2.167969 3.644531 -2.167969 3.328125 -2.21875 C 3.011719 -2.273438 2.851562 -2.429688 2.800781 -2.695312 C 2.957031 -2.746094 3.011719 -2.851562 3.011719 -3.011719 C 3.011719 -3.117188 3.011719 -3.222656 2.957031 -3.277344 C 3.011719 -3.277344 3.117188 -3.382812 3.277344 -3.59375 C 3.433594 -3.804688 3.59375 -4.070312 3.804688 -4.332031 C 4.015625 -4.703125 4.28125 -5.074219 4.597656 -5.496094 C 4.859375 -5.863281 5.074219 -6.234375 5.230469 -6.550781 C 5.390625 -6.867188 5.707031 -7.082031 6.128906 -7.1875 C 6.5 -7.34375 6.816406 -7.554688 7.132812 -7.871094 C 7.449219 -8.191406 7.714844 -8.507812 7.976562 -8.824219 C 8.242188 -9.140625 8.453125 -9.40625 8.613281 -9.617188 C 8.769531 -9.828125 8.875 -9.984375 8.929688 -10.039062 C 8.980469 -10.515625 9.089844 -10.988281 9.300781 -11.464844 C 9.511719 -11.941406 9.828125 -12.363281 10.304688 -12.734375 C 10.460938 -12.839844 10.515625 -13.050781 10.515625 -13.367188 C 10.515625 -13.738281 10.304688 -14.054688 9.828125 -14.265625 C 9.351562 -14.476562 8.980469 -14.636719 8.71875 -14.742188 C 8.453125 -14.582031 8.085938 -14.476562 7.660156 -14.425781 C 7.238281 -14.371094 6.816406 -14.265625 6.339844 -14.109375 C 5.863281 -13.949219 5.335938 -13.738281 4.753906 -13.472656 C 4.175781 -13.210938 3.59375 -12.839844 3.011719 -12.363281 C 1.902344 -11.464844 0.898438 -10.460938 0 -9.351562 C -0.898438 -8.242188 -1.320312 -6.972656 -1.320312 -5.546875 C -1.320312 -5.179688 -1.214844 -4.808594 -1.003906 -4.492188 C -0.792969 -4.175781 -0.6875 -3.855469 -0.6875 -3.539062 C -0.527344 -2.851562 -0.371094 -2.378906 -0.210938 -2.167969 C -0.0546875 -1.953125 0.0546875 -1.847656 0.105469 -1.847656 C 0.582031 -1.585938 0.949219 -1.269531 1.164062 -0.898438 C 1.375 -0.527344 1.691406 -0.371094 2.167969 -0.371094 C 2.429688 -0.421875 2.695312 -0.421875 2.957031 -0.421875 C 3.222656 -0.421875 3.433594 -0.527344 3.59375 -0.6875 C 3.75 -0.632812 4.015625 -0.582031 4.386719 -0.582031 C 4.808594 -0.582031 5.335938 -0.738281 6.023438 -1.058594 C 6.710938 -1.375 7.238281 -1.742188 7.660156 -2.167969 C 7.660156 -2.007812 7.660156 -1.902344 7.660156 -1.796875 C 7.660156 -1.691406 7.660156 -1.585938 7.660156 -1.480469 C 7.660156 -1.214844 7.714844 -0.84375 7.871094 -0.371094 C 8.03125 0.105469 8.191406 0.582031 8.402344 1.003906 C 8.613281 1.425781 8.875 1.796875 9.195312 2.113281 C 9.511719 2.429688 9.828125 2.589844 10.199219 2.589844 C 10.25 2.589844 10.304688 2.589844 10.355469 2.535156 C 10.410156 2.535156 10.460938 2.535156 10.515625 2.589844 C 10.460938 2.589844 10.410156 2.589844 10.410156 2.589844 C 10.410156 2.589844 10.355469 2.589844 10.304688 2.589844 C 10.566406 2.695312 10.777344 2.800781 10.988281 2.851562 C 11.203125 2.90625 11.414062 3.011719 11.570312 3.117188 C 11.570312 3.066406 11.570312 3.066406 11.570312 3.066406 C 11.570312 3.066406 11.570312 3.066406 11.570312 3.011719 L 11.675781 3.222656 C 11.886719 3.066406 12.101562 3.011719 12.363281 3.066406 C 12.628906 3.117188 12.839844 3.066406 13 2.90625 C 13.050781 2.957031 13.105469 2.957031 13.210938 2.957031 C 13.683594 2.957031 13.949219 2.851562 14.054688 2.640625 C 14.160156 2.429688 14.265625 2.378906 14.371094 2.429688 C 14.371094 2.378906 14.371094 2.378906 14.371094 2.378906 C 14.371094 2.378906 14.371094 2.378906 14.371094 2.324219 C 14.371094 2.273438 14.425781 2.273438 14.476562 2.273438 L 14.6875 2.273438 C 14.742188 2.21875 14.792969 2.167969 14.898438 2.113281 C 15.007812 2.0625 15.058594 2.007812 15.113281 1.953125 C 15.164062 2.007812 15.164062 2.0625 15.164062 2.113281 C 15.691406 1.691406 16.167969 1.214844 16.589844 0.6875 C 17.015625 0.160156 17.332031 -0.265625 17.59375 -0.527344 C 17.753906 -0.6875 18.019531 -0.949219 18.386719 -1.320312 C 18.757812 -1.691406 19.128906 -2.113281 19.496094 -2.589844 C 19.867188 -3.066406 20.183594 -3.488281 20.449219 -3.910156 C 20.710938 -4.332031 20.816406 -4.703125 20.816406 -4.964844 C 20.816406 -5.125 20.765625 -5.230469 20.660156 -5.230469 Z M 21.1875 -6.183594 "/></g></g></g><g fill="rgb(0%, 0%, 0%)" fill-opacity="1"><g transform="translate(118.04113, 191.031269)"><g><path d="M 21.820312 -6.605469 C 21.875 -6.605469 21.714844 -6.394531 21.347656 -5.96875 C 20.976562 -5.546875 20.554688 -5.019531 20.078125 -4.4375 C 19.601562 -3.855469 19.128906 -3.277344 18.652344 -2.695312 C 18.175781 -2.113281 17.804688 -1.691406 17.542969 -1.425781 C 16.222656 -0.210938 15.058594 0.371094 14.003906 0.371094 L 13.738281 0.421875 C 13.578125 0.421875 13.367188 0.371094 13.15625 0.265625 C 12.945312 0.160156 12.734375 -0.0546875 12.523438 -0.371094 C 12.3125 -0.6875 12.207031 -1.214844 12.207031 -1.902344 C 12.257812 -2.429688 12.363281 -2.90625 12.523438 -3.277344 C 12.679688 -3.644531 12.839844 -3.960938 13 -4.28125 C 13.15625 -4.597656 13.316406 -4.859375 13.421875 -5.125 C 13.527344 -5.390625 13.578125 -5.707031 13.578125 -6.023438 C 13.578125 -6.234375 13.683594 -6.5 13.84375 -6.867188 C 14.003906 -7.238281 14.214844 -7.660156 14.425781 -8.085938 C 14.636719 -8.507812 14.847656 -8.929688 15.058594 -9.351562 C 15.269531 -9.773438 15.429688 -10.09375 15.480469 -10.355469 C 15.535156 -10.621094 15.585938 -10.832031 15.640625 -11.042969 C 15.691406 -11.253906 15.691406 -11.464844 15.691406 -11.730469 C 15.691406 -12.417969 15.585938 -13.050781 15.324219 -13.578125 C 15.058594 -14.109375 14.742188 -14.53125 14.425781 -14.898438 C 14.109375 -15.269531 13.738281 -15.535156 13.367188 -15.691406 C 13 -15.851562 12.734375 -15.957031 12.523438 -16.011719 C 12.417969 -16.011719 12.257812 -16.011719 12.046875 -16.0625 C 11.835938 -16.117188 11.625 -16.167969 11.414062 -16.222656 C 11.203125 -16.273438 10.988281 -16.378906 10.832031 -16.484375 C 10.671875 -16.589844 10.566406 -16.695312 10.566406 -16.855469 C 10.621094 -17.121094 10.671875 -17.332031 10.726562 -17.542969 C 10.777344 -17.753906 10.832031 -17.964844 10.882812 -18.230469 C 10.9375 -18.492188 10.988281 -18.757812 11.097656 -19.074219 C 11.203125 -19.390625 11.308594 -19.867188 11.414062 -20.449219 C 11.414062 -20.976562 11.203125 -21.398438 10.777344 -21.664062 C 10.355469 -21.925781 9.933594 -22.085938 9.511719 -22.140625 L 9.511719 -22.085938 C 9.457031 -22.140625 9.300781 -22.140625 9.089844 -22.140625 C 8.875 -22.140625 8.664062 -22.035156 8.453125 -21.875 C 8.242188 -21.714844 8.03125 -21.609375 7.820312 -21.609375 C 7.765625 -21.609375 7.714844 -21.609375 7.660156 -21.664062 C 7.609375 -21.714844 7.554688 -21.714844 7.503906 -21.714844 C 7.34375 -21.714844 7.132812 -21.558594 6.921875 -21.292969 C 6.710938 -21.03125 6.5 -20.710938 6.339844 -20.34375 C 6.183594 -19.972656 6.023438 -19.65625 5.917969 -19.339844 C 5.8125 -19.023438 5.707031 -18.808594 5.652344 -18.703125 C 5.546875 -18.441406 5.496094 -18.125 5.496094 -17.804688 L 5.496094 -16.800781 C 5.496094 -16.378906 5.546875 -15.957031 5.652344 -15.585938 C 5.757812 -15.21875 5.917969 -14.847656 6.183594 -14.476562 C 6.234375 -14.425781 6.289062 -14.371094 6.289062 -14.320312 C 6.289062 -14.109375 6.234375 -14.003906 6.183594 -14.003906 L 5.125 -10.039062 C 4.859375 -9.457031 4.492188 -8.824219 4.070312 -8.191406 C 3.644531 -7.554688 3.222656 -6.921875 2.851562 -6.339844 C 2.484375 -5.757812 2.167969 -5.230469 1.902344 -4.753906 C 1.636719 -4.28125 1.480469 -3.960938 1.480469 -3.804688 C 1.480469 -3.644531 1.53125 -3.59375 1.691406 -3.59375 C 1.847656 -3.59375 2.113281 -3.855469 2.535156 -4.386719 C 2.957031 -4.914062 3.382812 -5.496094 3.855469 -6.183594 C 4.332031 -6.867188 4.808594 -7.554688 5.230469 -8.242188 C 5.652344 -8.929688 5.96875 -9.40625 6.183594 -9.722656 C 6.289062 -9.933594 6.445312 -10.199219 6.605469 -10.515625 C 6.761719 -10.832031 6.972656 -11.148438 7.1875 -11.464844 C 7.398438 -11.78125 7.609375 -12.046875 7.765625 -12.257812 C 7.925781 -12.46875 8.085938 -12.574219 8.191406 -12.574219 C 8.242188 -12.574219 8.296875 -12.574219 8.347656 -12.574219 C 8.402344 -12.574219 8.453125 -12.574219 8.507812 -12.574219 C 8.347656 -11.886719 8.085938 -11.148438 7.765625 -10.410156 C 7.449219 -9.667969 7.132812 -8.929688 6.867188 -8.191406 C 6.605469 -7.449219 6.339844 -6.761719 6.128906 -6.078125 C 5.917969 -5.390625 5.8125 -4.753906 5.8125 -4.175781 C 5.8125 -4.015625 5.8125 -3.804688 5.863281 -3.59375 C 5.917969 -3.382812 5.917969 -3.171875 5.917969 -2.957031 C 5.917969 -2.746094 5.863281 -2.535156 5.8125 -2.324219 C 5.757812 -2.113281 5.707031 -1.902344 5.707031 -1.691406 C 5.707031 -1.109375 5.8125 -0.476562 5.96875 0.210938 C 6.128906 0.898438 6.445312 1.53125 6.867188 2.113281 C 7.292969 2.695312 7.820312 3.171875 8.507812 3.539062 C 9.195312 3.910156 10.039062 4.121094 11.042969 4.121094 C 11.464844 4.121094 11.886719 4.015625 12.363281 3.855469 C 12.839844 3.699219 13.316406 3.488281 13.738281 3.222656 C 14.160156 2.957031 14.53125 2.695312 14.898438 2.429688 C 15.269531 2.167969 15.535156 1.953125 15.691406 1.796875 C 16.484375 1.109375 17.066406 0.582031 17.382812 0.210938 C 17.699219 -0.160156 17.964844 -0.527344 18.125 -0.898438 C 18.386719 -1.164062 18.703125 -1.480469 19.074219 -1.902344 C 19.445312 -2.324219 19.8125 -2.800781 20.183594 -3.277344 C 20.554688 -3.75 20.871094 -4.226562 21.136719 -4.703125 C 21.398438 -5.179688 21.558594 -5.546875 21.558594 -5.863281 C 21.558594 -6.078125 21.453125 -6.183594 21.292969 -6.183594 Z M 21.820312 -6.605469 "/></g></g></g><g fill="rgb(0%, 0%, 0%)" fill-opacity="1"><g transform="translate(136.532956, 191.031269)"><g><path d="M 4.070312 -16.167969 C 4.121094 -16.167969 4.226562 -16.222656 4.4375 -16.378906 C 4.648438 -16.539062 4.859375 -16.75 5.074219 -17.015625 C 5.285156 -17.277344 5.496094 -17.542969 5.707031 -17.804688 C 5.917969 -18.070312 6.023438 -18.335938 6.023438 -18.597656 C 6.023438 -18.96875 5.96875 -19.390625 5.917969 -19.867188 C 5.863281 -20.34375 5.757812 -20.765625 5.652344 -21.1875 C 5.546875 -21.609375 5.390625 -21.980469 5.230469 -22.246094 C 5.074219 -22.507812 4.859375 -22.667969 4.648438 -22.667969 C 4.492188 -22.667969 4.28125 -22.613281 4.015625 -22.507812 C 3.75 -22.402344 3.539062 -22.296875 3.382812 -22.191406 C 3.171875 -21.347656 3.066406 -20.5 3.066406 -19.601562 C 3.066406 -19.023438 3.117188 -18.386719 3.222656 -17.753906 C 3.328125 -17.121094 3.433594 -16.484375 3.59375 -15.902344 C 3.699219 -16.011719 3.804688 -16.117188 3.855469 -16.222656 C 3.910156 -16.328125 3.960938 -16.378906 4.015625 -16.433594 Z M 4.070312 -16.167969 "/></g></g></g><g fill="rgb(0%, 0%, 0%)" fill-opacity="1"><g transform="translate(143.242846, 191.031269)"><g><path d="M 26.523438 -24.410156 C 26.472656 -24.304688 26.417969 -24.253906 26.367188 -24.253906 C 26.3125 -24.253906 26.261719 -24.304688 26.207031 -24.359375 C 26.15625 -24.410156 26.101562 -24.464844 26.050781 -24.464844 L 25.625 -23.933594 C 25.46875 -23.777344 25.257812 -23.617188 24.992188 -23.511719 L 24.886719 -23.671875 L 24.78125 -23.828125 C 24.726562 -23.671875 24.515625 -23.460938 24.199219 -23.195312 C 23.882812 -22.929688 23.722656 -22.71875 23.722656 -22.613281 C 23.722656 -22.351562 23.566406 -22.035156 23.300781 -21.664062 C 23.039062 -21.292969 22.71875 -20.921875 22.351562 -20.554688 C 21.980469 -20.183594 21.503906 -19.761719 20.976562 -19.285156 C 20.34375 -18.546875 19.65625 -17.859375 18.96875 -17.226562 C 18.28125 -16.589844 17.59375 -16.011719 16.90625 -15.429688 C 16.960938 -15.429688 17.015625 -15.429688 17.066406 -15.375 C 17.015625 -15.324219 16.960938 -15.324219 16.90625 -15.324219 C 16.855469 -15.324219 16.855469 -15.324219 16.855469 -15.269531 C 16.800781 -15.269531 16.800781 -15.269531 16.800781 -15.269531 C 16.800781 -15.269531 16.800781 -15.269531 16.75 -15.269531 C 16.695312 -15.269531 16.589844 -15.21875 16.433594 -15.058594 C 16.273438 -14.898438 16.0625 -14.742188 15.851562 -14.53125 C 15.640625 -14.320312 15.429688 -14.109375 15.21875 -13.949219 C 15.007812 -13.789062 14.847656 -13.683594 14.792969 -13.632812 C 14.425781 -13.316406 14.054688 -13 13.632812 -12.679688 C 13.210938 -12.363281 12.785156 -12.101562 12.417969 -11.835938 C 12.628906 -12.523438 12.890625 -13.210938 13.210938 -13.84375 C 13.527344 -14.476562 13.789062 -15.058594 14.054688 -15.535156 C 14.320312 -16.011719 14.53125 -16.433594 14.742188 -16.75 C 14.953125 -17.066406 15.058594 -17.277344 15.113281 -17.382812 C 15.375 -17.648438 15.585938 -17.964844 15.746094 -18.335938 C 15.902344 -18.703125 16.0625 -19.074219 16.167969 -19.496094 C 16.273438 -19.917969 16.328125 -20.289062 16.378906 -20.605469 C 16.433594 -20.921875 16.433594 -21.136719 16.433594 -21.242188 C 16.484375 -21.558594 16.539062 -21.875 16.589844 -22.191406 C 16.644531 -22.507812 16.644531 -22.824219 16.644531 -23.144531 C 16.644531 -23.617188 16.589844 -23.988281 16.484375 -24.253906 C 16.378906 -24.515625 16.273438 -24.726562 16.167969 -24.886719 C 16.0625 -25.046875 15.957031 -25.152344 15.902344 -25.203125 C 15.851562 -25.257812 15.851562 -25.257812 15.902344 -25.257812 L 15.851562 -25.257812 C 15.585938 -25.46875 15.324219 -25.785156 15.113281 -26.261719 C 14.898438 -26.734375 14.582031 -27.105469 14.214844 -27.371094 L 13.789062 -27.582031 C 13.527344 -27.738281 13.210938 -27.898438 12.890625 -28.109375 C 12.574219 -28.320312 12.257812 -28.53125 11.941406 -28.691406 C 11.625 -28.847656 11.464844 -28.953125 11.464844 -29.007812 C 11.308594 -29.167969 11.097656 -29.273438 10.832031 -29.273438 C 10.566406 -29.273438 10.355469 -29.324219 10.144531 -29.378906 C 9.722656 -29.113281 9.351562 -28.742188 9.089844 -28.269531 C 8.824219 -27.792969 8.613281 -27.527344 8.507812 -27.476562 C 8.402344 -27.421875 8.296875 -27.210938 8.191406 -26.894531 C 8.085938 -26.578125 7.976562 -26.207031 7.871094 -25.835938 C 7.765625 -25.46875 7.660156 -25.097656 7.554688 -24.78125 C 7.449219 -24.464844 7.398438 -24.253906 7.398438 -24.199219 C 6.023438 -21.136719 4.808594 -18.230469 3.75 -15.480469 C 2.695312 -12.734375 1.742188 -10.304688 0.949219 -8.191406 C 0.160156 -6.078125 -0.476562 -4.332031 -0.898438 -3.011719 C -1.320312 -1.691406 -1.585938 -0.898438 -1.691406 -0.632812 C -1.953125 0.0546875 -2.21875 0.738281 -2.484375 1.375 C -2.746094 2.007812 -3.011719 2.695312 -3.222656 3.382812 C -3.488281 4.121094 -3.644531 4.648438 -3.75 4.964844 C -3.855469 5.285156 -3.910156 5.496094 -3.960938 5.601562 C -4.015625 5.707031 -4.015625 5.8125 -4.015625 5.863281 C -4.015625 5.917969 -4.015625 6.078125 -4.015625 6.339844 C -4.015625 6.394531 -4.015625 6.445312 -3.960938 6.5 L -3.855469 6.710938 L -3.910156 6.710938 C -3.75 6.816406 -3.644531 6.921875 -3.59375 6.972656 C -3.539062 7.027344 -3.488281 7.132812 -3.433594 7.238281 C -3.382812 7.34375 -3.277344 7.449219 -3.117188 7.503906 C -2.957031 7.554688 -2.746094 7.660156 -2.429688 7.765625 C -2.21875 7.820312 -2.0625 7.976562 -1.953125 8.191406 C -1.53125 8.191406 -1.214844 8.136719 -1.003906 7.976562 C -0.792969 7.820312 -0.632812 7.660156 -0.527344 7.449219 C -0.421875 7.238281 -0.316406 7.082031 -0.265625 6.921875 C -0.210938 6.761719 -0.105469 6.710938 0.0546875 6.710938 C 0.105469 6.710938 0.160156 6.710938 0.210938 6.710938 C 0.265625 6.710938 0.316406 6.710938 0.371094 6.710938 C 0.632812 6.183594 0.84375 5.652344 0.949219 5.074219 C 1.058594 4.492188 1.269531 3.960938 1.585938 3.433594 C 1.585938 3.328125 1.691406 3.222656 1.847656 3.117188 C 2.007812 3.011719 2.21875 2.90625 2.429688 2.800781 C 2.640625 2.695312 2.851562 2.589844 3.066406 2.484375 C 3.277344 2.378906 3.382812 2.273438 3.433594 2.167969 C 3.75 2.113281 3.960938 1.953125 4.070312 1.691406 C 4.175781 1.425781 4.332031 1.214844 4.542969 1.003906 L 4.597656 1.109375 C 5.019531 0.6875 5.390625 0.265625 5.707031 -0.160156 C 6.023438 -0.582031 6.183594 -0.792969 6.234375 -0.84375 C 7.082031 -1.53125 7.765625 -2.484375 8.296875 -3.699219 C 8.824219 -4.914062 9.457031 -6.339844 10.25 -7.925781 C 10.304688 -8.085938 10.355469 -8.191406 10.410156 -8.296875 C 10.460938 -8.402344 10.515625 -8.558594 10.566406 -8.71875 C 10.621094 -8.664062 10.671875 -8.613281 10.726562 -8.558594 L 10.621094 -8.558594 C 10.621094 -8.402344 10.671875 -8.191406 10.832031 -7.925781 C 10.882812 -7.765625 10.9375 -7.660156 10.988281 -7.554688 L 10.988281 -7.449219 C 10.988281 -7.398438 11.042969 -7.238281 11.148438 -7.027344 C 11.253906 -6.816406 11.414062 -6.550781 11.570312 -6.234375 C 11.730469 -5.917969 11.886719 -5.601562 12.046875 -5.285156 C 12.207031 -4.964844 12.3125 -4.703125 12.363281 -4.492188 C 13.050781 -2.800781 13.578125 -1.269531 14.003906 0.105469 C 14.425781 1.480469 14.792969 2.695312 15.058594 3.75 C 15.324219 4.808594 15.535156 5.707031 15.691406 6.445312 L 16.0625 8.296875 C 16.117188 8.453125 16.167969 8.613281 16.222656 8.769531 C 16.273438 8.929688 16.378906 9.035156 16.539062 9.035156 C 16.695312 9.035156 16.800781 8.929688 16.855469 8.769531 C 16.90625 8.613281 16.960938 8.402344 16.960938 8.191406 C 16.960938 7.503906 16.90625 6.972656 16.800781 6.550781 C 16.695312 6.128906 16.589844 5.757812 16.484375 5.441406 C 16.378906 5.125 16.273438 4.859375 16.167969 4.648438 C 16.0625 4.4375 16.011719 4.175781 15.957031 3.910156 C 15.691406 3.011719 15.429688 2.0625 15.164062 1.109375 C 14.898438 0.160156 14.6875 -0.792969 14.53125 -1.691406 C 14.109375 -3.382812 13.789062 -4.648438 13.578125 -5.496094 C 13.367188 -6.339844 13.210938 -6.972656 13.105469 -7.449219 C 13 -7.925781 12.890625 -8.296875 12.785156 -8.558594 C 12.679688 -8.824219 12.523438 -9.195312 12.3125 -9.667969 C 12.46875 -9.828125 12.679688 -9.984375 12.890625 -10.144531 C 13.105469 -10.304688 13.316406 -10.460938 13.527344 -10.566406 C 13.738281 -10.671875 13.894531 -10.777344 14.003906 -10.832031 L 14.160156 -10.882812 C 14.425781 -11.042969 14.792969 -11.253906 15.21875 -11.519531 C 15.640625 -11.78125 15.851562 -11.996094 15.851562 -12.152344 L 15.957031 -12.152344 C 16.0625 -12.152344 16.273438 -12.3125 16.644531 -12.574219 C 17.015625 -12.839844 17.226562 -13.105469 17.277344 -13.367188 C 17.277344 -13.316406 17.277344 -13.261719 17.277344 -13.261719 C 17.277344 -13.261719 17.277344 -13.210938 17.277344 -13.15625 C 17.332031 -13.316406 17.382812 -13.421875 17.4375 -13.472656 C 17.4375 -13.421875 17.4375 -13.421875 17.488281 -13.421875 L 17.59375 -13.421875 C 17.59375 -13.578125 17.699219 -13.683594 17.910156 -13.738281 C 18.125 -13.789062 18.230469 -13.894531 18.230469 -14.109375 C 18.230469 -14.160156 18.230469 -14.214844 18.175781 -14.265625 L 18.335938 -14.109375 C 18.335938 -14.160156 18.441406 -14.320312 18.652344 -14.582031 C 18.863281 -14.847656 19.128906 -15.113281 19.390625 -15.375 C 19.65625 -15.640625 19.917969 -15.851562 20.132812 -16.011719 C 20.34375 -16.167969 20.449219 -16.222656 20.394531 -16.167969 C 20.765625 -16.695312 21.03125 -17.015625 21.1875 -17.121094 C 21.347656 -17.226562 21.453125 -17.332031 21.558594 -17.382812 C 21.664062 -17.4375 21.769531 -17.542969 21.925781 -17.699219 C 22.085938 -17.859375 22.351562 -18.175781 22.773438 -18.703125 C 22.773438 -18.914062 22.878906 -19.128906 23.039062 -19.390625 C 23.195312 -19.65625 23.355469 -19.867188 23.566406 -20.078125 C 23.777344 -20.289062 23.933594 -20.449219 24.09375 -20.554688 C 24.253906 -20.660156 24.304688 -20.710938 24.253906 -20.660156 C 24.9375 -21.664062 25.363281 -22.402344 25.574219 -22.878906 C 25.785156 -23.355469 25.890625 -23.617188 25.890625 -23.722656 C 25.890625 -23.882812 25.785156 -23.988281 25.574219 -24.042969 Z M 26.523438 -24.410156 "/></g></g></g><g fill="rgb(0%, 0%, 0%)" fill-opacity="1"><g transform="translate(165.168872, 191.031269)"><g><path d="M 15.535156 -5.863281 C 15.585938 -5.863281 15.324219 -5.652344 14.792969 -5.179688 C 14.265625 -4.703125 13.632812 -4.175781 12.945312 -3.59375 C 12.257812 -3.011719 11.625 -2.484375 11.042969 -2.007812 C 10.460938 -1.53125 10.144531 -1.269531 10.144531 -1.214844 C 9.878906 -0.949219 9.457031 -0.738281 8.875 -0.582031 C 8.296875 -0.421875 7.871094 -0.316406 7.609375 -0.316406 C 7.34375 -0.316406 7.082031 -0.371094 6.816406 -0.527344 C 6.550781 -0.6875 6.289062 -0.84375 6.023438 -1.003906 C 5.757812 -1.164062 5.546875 -1.320312 5.390625 -1.480469 L 5.179688 -1.691406 C 5.179688 -2.273438 5.285156 -2.746094 5.546875 -3.066406 C 5.8125 -3.382812 5.917969 -3.699219 5.917969 -4.070312 C 5.96875 -5.125 6.078125 -5.917969 6.289062 -6.445312 C 6.5 -6.972656 6.710938 -7.398438 6.921875 -7.660156 C 7.132812 -7.925781 7.292969 -8.085938 7.449219 -8.191406 C 7.609375 -8.296875 7.660156 -8.453125 7.660156 -8.664062 C 7.871094 -8.664062 8.03125 -8.664062 8.136719 -8.71875 C 8.242188 -8.769531 8.296875 -8.824219 8.347656 -8.875 C 8.402344 -8.929688 8.402344 -8.980469 8.402344 -9.035156 C 8.402344 -9.089844 8.453125 -9.089844 8.507812 -9.089844 L 8.613281 -9.035156 C 8.769531 -9.035156 8.875 -9.089844 8.929688 -9.246094 C 8.980469 -9.40625 8.980469 -9.511719 8.980469 -9.5625 C 9.035156 -9.511719 9.089844 -9.511719 9.140625 -9.511719 C 9.300781 -9.511719 9.457031 -9.617188 9.617188 -9.773438 C 9.773438 -9.933594 9.878906 -10.09375 9.984375 -10.304688 C 10.09375 -10.515625 10.144531 -10.671875 10.199219 -10.832031 L 10.25 -11.042969 C 10.199219 -10.988281 10.199219 -11.042969 10.25 -11.203125 C 10.304688 -11.359375 10.355469 -11.519531 10.410156 -11.675781 C 10.515625 -11.835938 10.621094 -12.046875 10.726562 -12.3125 C 10.726562 -12.46875 10.671875 -12.628906 10.621094 -12.839844 C 10.566406 -13.050781 10.515625 -13.261719 10.515625 -13.527344 C 10.515625 -13.632812 10.515625 -13.738281 10.566406 -13.84375 C 10.621094 -13.949219 10.621094 -14.054688 10.621094 -14.160156 C 10.621094 -14.425781 10.515625 -14.6875 10.304688 -14.953125 C 10.09375 -15.21875 9.828125 -15.375 9.5625 -15.375 C 8.875 -15.269531 8.347656 -15.164062 7.976562 -15.058594 C 7.609375 -14.953125 7.34375 -14.847656 7.132812 -14.742188 C 6.921875 -14.636719 6.761719 -14.53125 6.65625 -14.425781 C 6.550781 -14.320312 6.394531 -14.160156 6.183594 -14.003906 C 5.496094 -13.632812 4.808594 -13.210938 4.175781 -12.785156 C 3.539062 -12.363281 2.90625 -11.835938 2.324219 -11.203125 C 1.742188 -10.566406 1.214844 -9.773438 0.738281 -8.875 C 0.265625 -7.976562 -0.105469 -6.867188 -0.421875 -5.601562 C -0.527344 -5.230469 -0.582031 -4.859375 -0.582031 -4.492188 C -0.582031 -3.804688 -0.476562 -3.117188 -0.210938 -2.429688 C 0.0546875 -1.742188 0.421875 -1.214844 0.898438 -0.84375 C 1.164062 -0.632812 1.375 -0.371094 1.480469 -0.0546875 C 1.585938 0.265625 1.796875 0.476562 2.0625 0.527344 C 2.535156 0.6875 3.066406 0.898438 3.644531 1.109375 C 4.226562 1.320312 5.019531 1.53125 6.023438 1.691406 C 6.078125 1.691406 6.128906 1.691406 6.183594 1.691406 C 6.234375 1.691406 6.289062 1.691406 6.339844 1.691406 C 6.394531 1.691406 6.550781 1.636719 6.761719 1.585938 C 6.972656 1.53125 7.1875 1.480469 7.449219 1.425781 C 7.714844 1.375 7.925781 1.320312 8.136719 1.269531 C 8.347656 1.214844 8.453125 1.214844 8.507812 1.214844 C 8.769531 0.949219 9.035156 0.792969 9.300781 0.6875 C 9.5625 0.582031 9.828125 0.527344 10.09375 0.476562 C 10.355469 0.421875 10.566406 0.371094 10.726562 0.316406 C 10.882812 0.265625 10.9375 0.105469 10.9375 -0.160156 C 11.203125 -0.421875 11.570312 -0.738281 12.101562 -1.164062 C 12.628906 -1.585938 13.15625 -2.007812 13.683594 -2.429688 C 14.214844 -2.851562 14.6875 -3.277344 15.113281 -3.75 C 15.535156 -4.226562 15.746094 -4.648438 15.746094 -5.019531 C 15.746094 -5.179688 15.691406 -5.230469 15.535156 -5.230469 Z M 7.976562 -10.410156 C 8.347656 -10.566406 8.664062 -10.832031 8.929688 -11.148438 C 9.195312 -11.464844 9.457031 -11.730469 9.722656 -11.996094 C 9.773438 -11.996094 9.773438 -11.996094 9.773438 -11.941406 C 9.773438 -11.570312 9.667969 -11.253906 9.457031 -10.9375 C 9.246094 -10.621094 9.035156 -10.355469 8.769531 -10.144531 C 8.507812 -9.933594 8.242188 -9.722656 8.03125 -9.5625 C 7.820312 -9.40625 7.660156 -9.351562 7.609375 -9.351562 C 7.609375 -9.40625 7.609375 -9.40625 7.609375 -9.40625 C 7.609375 -9.40625 7.609375 -9.40625 7.609375 -9.457031 C 7.609375 -9.617188 7.660156 -9.773438 7.765625 -9.933594 C 7.871094 -10.09375 7.976562 -10.199219 8.03125 -10.25 Z M 7.976562 -10.410156 "/></g></g></g><g fill="rgb(0%, 0%, 0%)" fill-opacity="1"><g transform="translate(177.796149, 191.031269)"><g><path d="M 12.101562 -35.769531 L 12.101562 -35.71875 C 12.046875 -35.769531 11.996094 -35.769531 11.886719 -35.769531 C 11.730469 -35.769531 11.570312 -35.769531 11.464844 -35.71875 C 11.359375 -35.664062 11.203125 -35.402344 10.988281 -34.871094 C 10.777344 -34.34375 10.410156 -33.5 9.878906 -32.285156 C 9.351562 -31.070312 8.558594 -29.273438 7.554688 -26.894531 C 6.445312 -24.359375 5.496094 -21.714844 4.703125 -19.023438 C 3.910156 -16.328125 3.117188 -13.683594 2.378906 -11.097656 C 2.324219 -10.988281 2.21875 -10.566406 2.007812 -9.828125 C 1.796875 -9.089844 1.585938 -8.136719 1.320312 -6.972656 C 1.058594 -5.8125 0.84375 -4.4375 0.632812 -2.90625 C 0.421875 -1.375 0.316406 0.265625 0.316406 2.007812 C 0.371094 2.273438 0.421875 2.589844 0.527344 2.957031 C 0.632812 3.328125 0.738281 3.699219 0.898438 4.015625 C 1.058594 4.332031 1.269531 4.597656 1.53125 4.808594 C 1.796875 5.019531 2.167969 5.125 2.589844 5.125 C 3.277344 5.125 3.855469 4.914062 4.386719 4.492188 C 4.914062 4.070312 5.335938 3.75 5.707031 3.488281 L 5.707031 3.539062 C 5.757812 3.539062 5.863281 3.433594 5.96875 3.222656 C 6.078125 3.011719 6.183594 2.851562 6.234375 2.695312 C 6.339844 2.535156 6.445312 2.429688 6.605469 2.378906 C 6.761719 2.324219 6.867188 2.273438 6.921875 2.21875 C 7.1875 1.796875 7.34375 1.425781 7.449219 1.058594 C 7.554688 0.6875 7.660156 0.371094 7.714844 0.0546875 C 7.765625 -0.265625 7.820312 -0.582031 7.871094 -0.898438 C 7.925781 -1.214844 7.976562 -1.480469 8.085938 -1.742188 C 8.191406 -2.484375 8.242188 -2.90625 8.296875 -3.011719 C 8.347656 -3.117188 8.347656 -3.277344 8.347656 -3.488281 C 8.347656 -4.175781 8.296875 -4.753906 8.136719 -5.285156 C 8.136719 -5.863281 7.976562 -6.289062 7.660156 -6.550781 C 7.34375 -6.816406 7.1875 -6.972656 7.1875 -7.027344 C 7.1875 -7.132812 7.1875 -7.292969 7.238281 -7.503906 C 7.292969 -7.714844 7.398438 -7.925781 7.609375 -8.136719 L 7.609375 -8.085938 C 7.609375 -8.136719 7.609375 -8.191406 7.609375 -8.242188 C 7.609375 -8.296875 7.609375 -8.347656 7.609375 -8.402344 C 7.609375 -8.507812 7.660156 -8.613281 7.820312 -8.71875 C 7.976562 -8.824219 8.136719 -8.980469 8.296875 -9.195312 C 8.453125 -9.40625 8.613281 -9.667969 8.769531 -9.984375 C 8.929688 -10.304688 8.980469 -10.671875 8.980469 -11.097656 C 8.980469 -11.148438 8.929688 -11.253906 8.875 -11.414062 C 8.929688 -11.359375 8.980469 -11.359375 9.035156 -11.359375 C 9.089844 -11.414062 9.195312 -11.675781 9.40625 -12.152344 C 9.617188 -12.628906 9.722656 -12.945312 9.722656 -13.15625 C 9.722656 -13.261719 9.722656 -13.367188 9.667969 -13.421875 L 9.722656 -13.472656 C 9.722656 -13.421875 9.773438 -13.367188 9.828125 -13.316406 C 9.984375 -13.472656 10.039062 -13.632812 9.984375 -13.789062 C 9.933594 -13.949219 10.039062 -14.109375 10.304688 -14.265625 C 10.304688 -14.320312 10.355469 -14.425781 10.460938 -14.582031 C 10.566406 -14.742188 10.671875 -14.953125 10.777344 -15.21875 C 10.882812 -15.480469 10.988281 -15.746094 11.097656 -16.011719 C 11.203125 -16.273438 11.253906 -16.484375 11.253906 -16.695312 C 11.253906 -17.171875 11.359375 -17.59375 11.570312 -18.019531 C 11.78125 -18.441406 12.046875 -18.914062 12.363281 -19.390625 C 12.679688 -19.867188 12.945312 -20.394531 13.210938 -20.976562 C 13.472656 -21.558594 13.632812 -22.191406 13.738281 -22.878906 C 13.738281 -22.929688 13.789062 -23.039062 13.894531 -23.25 C 14.003906 -23.460938 14.109375 -23.671875 14.214844 -23.933594 C 14.320312 -24.199219 14.425781 -24.464844 14.53125 -24.726562 C 14.636719 -24.992188 14.6875 -25.203125 14.6875 -25.363281 C 14.6875 -25.414062 14.6875 -25.414062 14.6875 -25.414062 C 14.6875 -25.414062 14.6875 -25.414062 14.6875 -25.46875 C 14.6875 -25.625 14.742188 -25.835938 14.898438 -26.050781 C 15.058594 -26.261719 15.21875 -26.523438 15.429688 -26.839844 C 15.640625 -27.160156 15.796875 -27.527344 15.957031 -28.003906 C 16.117188 -28.480469 16.167969 -29.0625 16.167969 -29.746094 C 16.167969 -29.800781 16.167969 -29.851562 16.167969 -29.957031 C 16.167969 -30.066406 16.167969 -30.117188 16.167969 -30.171875 C 16.167969 -30.222656 16.167969 -30.277344 16.167969 -30.328125 C 16.167969 -30.382812 16.167969 -30.433594 16.167969 -30.488281 C 16.167969 -30.75 16.117188 -31.070312 15.957031 -31.4375 C 15.796875 -31.808594 15.640625 -32.179688 15.429688 -32.601562 C 15.21875 -33.023438 14.953125 -33.445312 14.6875 -33.867188 C 14.425781 -34.292969 14.160156 -34.609375 13.894531 -34.871094 C 13.683594 -35.296875 13.367188 -35.507812 13 -35.558594 C 12.628906 -35.613281 12.257812 -35.664062 11.886719 -35.71875 Z M 1.953125 2.695312 C 1.953125 2.535156 2.007812 2.324219 2.0625 2.007812 C 2.113281 1.691406 2.21875 1.375 2.324219 1.058594 C 2.429688 0.738281 2.535156 0.371094 2.640625 0 C 2.746094 -0.371094 2.851562 -0.6875 2.90625 -0.949219 C 2.90625 -1.003906 3.066406 -1.109375 3.382812 -1.269531 C 3.699219 -1.425781 3.855469 -1.585938 3.855469 -1.742188 L 3.855469 -1.691406 L 4.015625 -2.0625 C 4.121094 -2.324219 4.226562 -2.589844 4.386719 -2.851562 L 4.753906 -3.644531 C 4.859375 -3.910156 4.964844 -4.015625 5.019531 -4.015625 C 5.179688 -4.070312 5.285156 -4.121094 5.335938 -4.226562 C 5.390625 -4.332031 5.441406 -4.4375 5.496094 -4.597656 C 5.546875 -4.753906 5.601562 -4.914062 5.707031 -5.074219 C 5.8125 -5.230469 5.917969 -5.335938 6.078125 -5.441406 L 6.023438 -5.546875 C 6.128906 -5.546875 6.234375 -5.441406 6.289062 -5.179688 C 6.339844 -4.914062 6.394531 -4.648438 6.445312 -4.332031 C 6.5 -4.015625 6.5 -3.699219 6.5 -3.382812 C 6.5 -3.066406 6.5 -2.851562 6.5 -2.746094 C 6.5 -2.378906 6.445312 -2.007812 6.394531 -1.691406 C 6.339844 -1.375 6.289062 -1.003906 6.234375 -0.632812 C 6.183594 -0.421875 6.023438 -0.0546875 5.8125 0.421875 C 5.601562 0.898438 5.335938 1.375 5.019531 1.847656 C 4.703125 2.324219 4.332031 2.800781 3.910156 3.222656 C 3.488281 3.644531 3.011719 3.910156 2.535156 4.015625 C 2.167969 4.015625 1.953125 3.855469 1.902344 3.539062 C 1.847656 3.222656 1.796875 2.957031 1.796875 2.800781 Z M 1.953125 2.695312 "/></g></g></g><g fill="rgb(0%, 0%, 0%)" fill-opacity="1"><g transform="translate(189.049749, 191.031269)"><g><path d="M 21.292969 -26.523438 L 18.175781 -26.523438 C 17.699219 -26.523438 17.4375 -26.578125 17.4375 -26.628906 C 18.125 -27.316406 18.546875 -27.949219 18.703125 -28.53125 C 18.863281 -29.113281 19.128906 -29.640625 19.496094 -30.117188 C 19.761719 -30.433594 19.972656 -30.855469 20.132812 -31.4375 C 20.289062 -32.019531 20.34375 -32.441406 20.34375 -32.757812 C 20.34375 -33.183594 20.238281 -33.550781 20.027344 -33.867188 C 19.8125 -34.1875 19.550781 -34.449219 19.285156 -34.714844 C 19.023438 -34.980469 18.757812 -35.242188 18.546875 -35.453125 C 18.335938 -35.664062 18.230469 -35.875 18.230469 -36.140625 L 16.960938 -37.355469 C 16.539062 -37.777344 16.011719 -37.992188 15.429688 -37.992188 C 15.21875 -37.992188 14.953125 -37.832031 14.6875 -37.515625 C 14.425781 -37.199219 14.160156 -36.828125 13.949219 -36.40625 C 13.738281 -35.984375 13.527344 -35.558594 13.367188 -35.191406 C 13.210938 -34.820312 13.105469 -34.554688 13.050781 -34.449219 C 12.785156 -33.972656 12.523438 -33.5 12.257812 -33.023438 C 11.996094 -32.546875 11.730469 -32.019531 11.414062 -31.4375 C 11.097656 -30.855469 10.777344 -30.171875 10.410156 -29.429688 C 10.039062 -28.691406 9.617188 -27.792969 9.140625 -26.789062 C 9.089844 -26.628906 9.035156 -26.472656 8.980469 -26.3125 C 8.929688 -26.15625 8.824219 -25.996094 8.71875 -25.835938 C 8.453125 -25.785156 8.085938 -25.730469 7.609375 -25.730469 C 7.132812 -25.730469 6.65625 -25.679688 6.183594 -25.625 C 5.707031 -25.574219 5.285156 -25.519531 4.964844 -25.46875 C 4.648438 -25.414062 4.542969 -25.308594 4.597656 -25.203125 C 4.28125 -25.152344 3.960938 -25.046875 3.59375 -24.886719 C 3.222656 -24.726562 2.957031 -24.464844 2.746094 -24.042969 C 3.222656 -24.042969 3.539062 -23.933594 3.75 -23.671875 C 3.960938 -23.40625 4.226562 -23.195312 4.492188 -22.984375 C 4.492188 -23.039062 4.542969 -23.089844 4.597656 -23.089844 C 4.648438 -23.089844 4.808594 -23.039062 5.125 -22.984375 C 5.441406 -22.929688 5.757812 -22.878906 6.078125 -22.824219 C 6.394531 -22.773438 6.710938 -22.667969 6.972656 -22.5625 C 7.238281 -22.457031 7.398438 -22.402344 7.449219 -22.351562 C 6.234375 -19.867188 5.074219 -17.277344 3.960938 -14.636719 C 2.851562 -11.996094 2.007812 -9.40625 1.425781 -6.921875 C 1.375 -6.761719 1.320312 -6.605469 1.320312 -6.445312 C 1.320312 -6.289062 1.320312 -6.128906 1.320312 -5.96875 C 1.320312 -5.179688 1.425781 -4.332031 1.691406 -3.488281 C 1.953125 -2.640625 2.324219 -1.902344 2.800781 -1.214844 C 3.277344 -0.527344 3.804688 0 4.4375 0.421875 C 5.074219 0.84375 5.757812 1.058594 6.550781 1.058594 L 7.765625 1.058594 C 8.242188 1.058594 8.613281 1.003906 8.875 0.949219 C 9.140625 0.898438 9.40625 0.792969 9.617188 0.6875 L 10.304688 0.371094 C 10.566406 0.265625 10.882812 0.160156 11.308594 0.0546875 C 11.253906 0 11.203125 -0.0546875 11.203125 -0.105469 L 11.203125 -0.160156 C 11.359375 -0.160156 11.464844 -0.105469 11.570312 -0.0546875 L 11.570312 -0.105469 C 11.570312 -0.160156 11.570312 -0.160156 11.570312 -0.160156 C 11.570312 -0.160156 11.570312 -0.160156 11.570312 -0.210938 C 11.570312 -0.265625 11.625 -0.371094 11.730469 -0.527344 C 11.835938 -0.6875 11.996094 -0.84375 12.152344 -1.003906 C 12.3125 -1.164062 12.46875 -1.320312 12.628906 -1.480469 C 12.785156 -1.636719 12.890625 -1.691406 12.945312 -1.691406 L 12.945312 -1.636719 C 13.421875 -1.953125 13.894531 -2.324219 14.425781 -2.746094 C 14.953125 -3.171875 15.429688 -3.59375 15.902344 -4.015625 C 16.378906 -4.4375 16.75 -4.808594 17.015625 -5.179688 C 17.277344 -5.546875 17.4375 -5.863281 17.4375 -6.128906 C 17.4375 -6.289062 17.382812 -6.394531 17.226562 -6.394531 C 17.121094 -6.394531 16.90625 -6.234375 16.589844 -5.96875 C 16.273438 -5.707031 15.902344 -5.335938 15.480469 -4.914062 C 15.058594 -4.492188 14.636719 -4.070312 14.160156 -3.644531 C 13.683594 -3.222656 13.210938 -2.851562 12.734375 -2.535156 C 11.464844 -1.636719 10.304688 -1.058594 9.246094 -0.792969 C 8.769531 -1.058594 8.347656 -1.320312 7.976562 -1.585938 C 7.609375 -1.847656 7.449219 -2.21875 7.449219 -2.640625 C 7.503906 -2.589844 7.554688 -2.535156 7.554688 -2.484375 L 7.554688 -3.066406 C 7.554688 -3.277344 7.660156 -3.488281 7.871094 -3.644531 C 7.714844 -3.644531 7.660156 -3.699219 7.660156 -3.75 C 7.660156 -3.804688 7.714844 -3.910156 7.871094 -4.070312 C 7.925781 -4.015625 7.976562 -3.960938 8.03125 -3.960938 C 8.03125 -4.070312 8.03125 -4.175781 7.976562 -4.226562 C 8.136719 -4.226562 8.296875 -4.386719 8.453125 -4.648438 L 8.558594 -5.074219 C 8.507812 -5.125 8.453125 -5.125 8.402344 -5.125 C 8.347656 -5.125 8.296875 -5.125 8.242188 -5.179688 C 8.296875 -5.230469 8.347656 -5.230469 8.453125 -5.230469 C 8.558594 -5.230469 8.613281 -5.285156 8.613281 -5.441406 C 8.507812 -5.390625 8.453125 -5.335938 8.402344 -5.230469 L 8.347656 -5.335938 C 8.347656 -5.390625 8.402344 -5.441406 8.507812 -5.441406 C 8.613281 -5.441406 8.664062 -5.496094 8.71875 -5.546875 C 8.664062 -5.601562 8.613281 -5.601562 8.558594 -5.601562 C 8.507812 -5.601562 8.453125 -5.601562 8.402344 -5.652344 C 8.453125 -5.652344 8.558594 -5.8125 8.769531 -6.078125 C 8.980469 -6.339844 9.089844 -6.5 9.089844 -6.550781 C 9.089844 -6.605469 9.089844 -6.605469 9.089844 -6.605469 C 9.089844 -6.605469 9.089844 -6.605469 9.089844 -6.65625 C 9.246094 -6.65625 9.351562 -6.65625 9.40625 -6.65625 C 9.457031 -6.65625 9.511719 -6.761719 9.511719 -6.921875 C 9.457031 -6.921875 9.40625 -6.867188 9.40625 -6.816406 C 9.40625 -6.761719 9.351562 -6.710938 9.300781 -6.710938 C 9.351562 -6.921875 9.40625 -7.082031 9.40625 -7.132812 C 9.457031 -7.132812 9.5625 -7.082031 9.722656 -7.027344 C 9.667969 -7.082031 9.667969 -7.132812 9.667969 -7.238281 C 9.722656 -7.292969 9.773438 -7.292969 9.828125 -7.292969 C 9.773438 -7.292969 9.773438 -7.398438 9.773438 -7.554688 C 9.773438 -7.714844 9.828125 -7.820312 9.878906 -7.871094 L 9.878906 -7.398438 C 9.933594 -7.398438 10.039062 -7.609375 10.199219 -8.03125 C 10.355469 -8.453125 10.515625 -8.875 10.726562 -9.351562 C 10.9375 -9.828125 11.097656 -10.25 11.203125 -10.671875 C 11.308594 -11.097656 11.359375 -11.308594 11.308594 -11.308594 L 11.730469 -12.046875 C 11.835938 -12.257812 11.941406 -12.46875 12.046875 -12.734375 C 12.152344 -13 12.207031 -13.261719 12.207031 -13.527344 C 12.628906 -14.425781 13 -15.21875 13.316406 -15.957031 C 13.632812 -16.695312 13.894531 -17.382812 14.160156 -18.070312 C 14.425781 -18.757812 14.636719 -19.390625 14.847656 -20.027344 C 15.058594 -20.660156 15.21875 -21.347656 15.375 -22.085938 L 15.480469 -22.71875 C 15.535156 -22.929688 15.640625 -23.144531 15.796875 -23.355469 C 15.746094 -23.355469 15.746094 -23.355469 15.746094 -23.40625 C 15.746094 -23.460938 15.746094 -23.460938 15.746094 -23.460938 C 15.746094 -23.460938 15.746094 -23.460938 15.746094 -23.511719 C 15.851562 -23.671875 16.0625 -23.828125 16.378906 -23.988281 C 16.695312 -24.148438 17.015625 -24.304688 17.382812 -24.464844 C 17.753906 -24.621094 18.070312 -24.726562 18.386719 -24.78125 C 18.703125 -24.832031 18.914062 -24.886719 19.074219 -24.886719 C 18.914062 -24.9375 18.808594 -24.9375 18.757812 -24.9375 C 18.703125 -24.9375 18.597656 -24.992188 18.492188 -25.152344 C 18.863281 -25.152344 19.179688 -25.203125 19.390625 -25.363281 C 19.601562 -25.519531 19.8125 -25.574219 20.027344 -25.574219 C 20.078125 -25.519531 20.183594 -25.519531 20.289062 -25.519531 C 20.394531 -25.519531 20.5 -25.574219 20.660156 -25.730469 C 20.816406 -25.890625 20.976562 -25.996094 21.136719 -26.050781 C 21.082031 -26.050781 21.082031 -26.101562 21.082031 -26.15625 Z M 7.238281 -0.898438 L 7.554688 -0.898438 C 7.714844 -0.898438 7.925781 -0.792969 8.191406 -0.632812 C 8.453125 -0.476562 8.71875 -0.371094 8.980469 -0.316406 C 8.613281 -0.265625 8.347656 -0.210938 8.191406 -0.210938 C 7.820312 -0.210938 7.609375 -0.265625 7.503906 -0.316406 C 7.398438 -0.371094 7.238281 -0.582031 7.082031 -0.898438 Z M 7.238281 -0.898438 "/></g></g></g><g fill="rgb(0%, 0%, 0%)" fill-opacity="1"><g transform="translate(202.997881, 191.031269)"><g><path d="M 21.1875 -6.183594 C 21.136719 -6.183594 20.921875 -6.023438 20.605469 -5.652344 C 20.289062 -5.285156 19.8125 -4.753906 19.128906 -4.070312 C 18.441406 -3.382812 17.964844 -2.90625 17.699219 -2.589844 C 17.4375 -2.273438 17.277344 -2.0625 17.171875 -1.953125 C 17.066406 -1.847656 17.015625 -1.796875 17.015625 -1.796875 C 17.015625 -1.796875 16.90625 -1.796875 16.75 -1.742188 C 16.589844 -1.691406 16.378906 -1.53125 16.167969 -1.320312 C 15.957031 -1.109375 15.691406 -0.898438 15.429688 -0.6875 C 15.164062 -0.476562 14.898438 -0.265625 14.636719 -0.0546875 C 14.371094 0.160156 14.160156 0.316406 14.003906 0.421875 C 13.894531 0.316406 13.84375 0.160156 13.84375 -0.105469 C 13.84375 -0.316406 13.84375 -0.476562 13.894531 -0.632812 C 13.949219 -0.792969 13.949219 -0.949219 13.949219 -1.109375 C 13.894531 -1.269531 13.84375 -1.480469 13.84375 -1.691406 C 13.84375 -1.902344 13.84375 -2.113281 13.84375 -2.273438 C 13.84375 -2.535156 13.84375 -2.746094 13.894531 -2.957031 C 13.949219 -3.171875 13.949219 -3.382812 13.949219 -3.59375 C 13.949219 -3.804688 13.894531 -4.015625 13.84375 -4.226562 C 13.789062 -4.4375 13.738281 -4.648438 13.738281 -4.914062 C 13.738281 -5.179688 13.789062 -5.441406 13.894531 -5.707031 C 14.003906 -5.96875 14.054688 -6.234375 14.054688 -6.5 C 14.003906 -6.550781 13.949219 -6.605469 13.894531 -6.65625 C 13.949219 -6.65625 14.003906 -6.710938 14.109375 -6.867188 C 14.214844 -7.027344 14.265625 -7.1875 14.320312 -7.398438 C 14.371094 -7.609375 14.425781 -7.820312 14.476562 -8.03125 C 14.53125 -8.242188 14.582031 -8.347656 14.636719 -8.402344 C 14.636719 -8.453125 14.636719 -8.507812 14.636719 -8.558594 C 14.636719 -8.613281 14.636719 -8.664062 14.636719 -8.71875 C 14.636719 -8.769531 14.636719 -8.824219 14.636719 -8.824219 C 14.636719 -8.824219 14.636719 -8.875 14.636719 -8.929688 C 14.636719 -9.035156 14.6875 -9.140625 14.792969 -9.300781 C 14.898438 -9.457031 14.953125 -9.5625 14.953125 -9.617188 C 14.953125 -9.667969 14.898438 -9.722656 14.847656 -9.722656 C 14.792969 -9.722656 14.742188 -9.773438 14.742188 -9.933594 L 14.898438 -9.933594 C 14.953125 -9.933594 15.007812 -9.933594 15.058594 -9.984375 L 14.847656 -10.199219 C 14.898438 -10.355469 14.953125 -10.515625 15.007812 -10.726562 C 15.058594 -10.9375 15.058594 -11.148438 15.058594 -11.308594 C 15.058594 -11.359375 15.007812 -11.464844 14.953125 -11.675781 C 14.898438 -11.886719 14.6875 -11.996094 14.320312 -11.996094 C 14.214844 -11.996094 14.109375 -11.996094 14.003906 -11.996094 C 13.894531 -11.996094 13.789062 -11.996094 13.683594 -11.996094 C 13.527344 -11.996094 13.367188 -11.996094 13.210938 -12.046875 C 13.050781 -12.101562 12.890625 -12.101562 12.734375 -12.101562 C 12.574219 -12.101562 12.363281 -11.886719 12.046875 -11.414062 C 11.730469 -10.9375 11.414062 -10.410156 11.042969 -9.773438 C 10.671875 -9.140625 10.304688 -8.453125 9.933594 -7.765625 C 9.5625 -7.082031 9.195312 -6.5 8.875 -6.023438 C 8.558594 -5.496094 8.191406 -4.964844 7.765625 -4.492188 C 7.34375 -4.015625 6.867188 -3.59375 6.394531 -3.277344 C 5.917969 -2.957031 5.441406 -2.695312 5.019531 -2.484375 C 4.597656 -2.273438 4.226562 -2.167969 3.910156 -2.167969 C 3.855469 -2.167969 3.644531 -2.167969 3.328125 -2.21875 C 3.011719 -2.273438 2.851562 -2.429688 2.800781 -2.695312 C 2.957031 -2.746094 3.011719 -2.851562 3.011719 -3.011719 C 3.011719 -3.117188 3.011719 -3.222656 2.957031 -3.277344 C 3.011719 -3.277344 3.117188 -3.382812 3.277344 -3.59375 C 3.433594 -3.804688 3.59375 -4.070312 3.804688 -4.332031 C 4.015625 -4.703125 4.28125 -5.074219 4.597656 -5.496094 C 4.859375 -5.863281 5.074219 -6.234375 5.230469 -6.550781 C 5.390625 -6.867188 5.707031 -7.082031 6.128906 -7.1875 C 6.5 -7.34375 6.816406 -7.554688 7.132812 -7.871094 C 7.449219 -8.191406 7.714844 -8.507812 7.976562 -8.824219 C 8.242188 -9.140625 8.453125 -9.40625 8.613281 -9.617188 C 8.769531 -9.828125 8.875 -9.984375 8.929688 -10.039062 C 8.980469 -10.515625 9.089844 -10.988281 9.300781 -11.464844 C 9.511719 -11.941406 9.828125 -12.363281 10.304688 -12.734375 C 10.460938 -12.839844 10.515625 -13.050781 10.515625 -13.367188 C 10.515625 -13.738281 10.304688 -14.054688 9.828125 -14.265625 C 9.351562 -14.476562 8.980469 -14.636719 8.71875 -14.742188 C 8.453125 -14.582031 8.085938 -14.476562 7.660156 -14.425781 C 7.238281 -14.371094 6.816406 -14.265625 6.339844 -14.109375 C 5.863281 -13.949219 5.335938 -13.738281 4.753906 -13.472656 C 4.175781 -13.210938 3.59375 -12.839844 3.011719 -12.363281 C 1.902344 -11.464844 0.898438 -10.460938 0 -9.351562 C -0.898438 -8.242188 -1.320312 -6.972656 -1.320312 -5.546875 C -1.320312 -5.179688 -1.214844 -4.808594 -1.003906 -4.492188 C -0.792969 -4.175781 -0.6875 -3.855469 -0.6875 -3.539062 C -0.527344 -2.851562 -0.371094 -2.378906 -0.210938 -2.167969 C -0.0546875 -1.953125 0.0546875 -1.847656 0.105469 -1.847656 C 0.582031 -1.585938 0.949219 -1.269531 1.164062 -0.898438 C 1.375 -0.527344 1.691406 -0.371094 2.167969 -0.371094 C 2.429688 -0.421875 2.695312 -0.421875 2.957031 -0.421875 C 3.222656 -0.421875 3.433594 -0.527344 3.59375 -0.6875 C 3.75 -0.632812 4.015625 -0.582031 4.386719 -0.582031 C 4.808594 -0.582031 5.335938 -0.738281 6.023438 -1.058594 C 6.710938 -1.375 7.238281 -1.742188 7.660156 -2.167969 C 7.660156 -2.007812 7.660156 -1.902344 7.660156 -1.796875 C 7.660156 -1.691406 7.660156 -1.585938 7.660156 -1.480469 C 7.660156 -1.214844 7.714844 -0.84375 7.871094 -0.371094 C 8.03125 0.105469 8.191406 0.582031 8.402344 1.003906 C 8.613281 1.425781 8.875 1.796875 9.195312 2.113281 C 9.511719 2.429688 9.828125 2.589844 10.199219 2.589844 C 10.25 2.589844 10.304688 2.589844 10.355469 2.535156 C 10.410156 2.535156 10.460938 2.535156 10.515625 2.589844 C 10.460938 2.589844 10.410156 2.589844 10.410156 2.589844 C 10.410156 2.589844 10.355469 2.589844 10.304688 2.589844 C 10.566406 2.695312 10.777344 2.800781 10.988281 2.851562 C 11.203125 2.90625 11.414062 3.011719 11.570312 3.117188 C 11.570312 3.066406 11.570312 3.066406 11.570312 3.066406 C 11.570312 3.066406 11.570312 3.066406 11.570312 3.011719 L 11.675781 3.222656 C 11.886719 3.066406 12.101562 3.011719 12.363281 3.066406 C 12.628906 3.117188 12.839844 3.066406 13 2.90625 C 13.050781 2.957031 13.105469 2.957031 13.210938 2.957031 C 13.683594 2.957031 13.949219 2.851562 14.054688 2.640625 C 14.160156 2.429688 14.265625 2.378906 14.371094 2.429688 C 14.371094 2.378906 14.371094 2.378906 14.371094 2.378906 C 14.371094 2.378906 14.371094 2.378906 14.371094 2.324219 C 14.371094 2.273438 14.425781 2.273438 14.476562 2.273438 L 14.6875 2.273438 C 14.742188 2.21875 14.792969 2.167969 14.898438 2.113281 C 15.007812 2.0625 15.058594 2.007812 15.113281 1.953125 C 15.164062 2.007812 15.164062 2.0625 15.164062 2.113281 C 15.691406 1.691406 16.167969 1.214844 16.589844 0.6875 C 17.015625 0.160156 17.332031 -0.265625 17.59375 -0.527344 C 17.753906 -0.6875 18.019531 -0.949219 18.386719 -1.320312 C 18.757812 -1.691406 19.128906 -2.113281 19.496094 -2.589844 C 19.867188 -3.066406 20.183594 -3.488281 20.449219 -3.910156 C 20.710938 -4.332031 20.816406 -4.703125 20.816406 -4.964844 C 20.816406 -5.125 20.765625 -5.230469 20.660156 -5.230469 Z M 21.1875 -6.183594 "/></g></g></g><g fill="rgb(0%, 0%, 0%)" fill-opacity="1"><g transform="translate(221.067045, 191.031269)"><g/></g></g><g fill="rgb(0%, 0%, 0%)" fill-opacity="1"><g transform="translate(235.173672, 191.031269)"><g><path d="M 7.292969 -1.691406 C 7.238281 -1.636719 7.1875 -1.53125 7.082031 -1.425781 L 7.027344 -1.480469 C 7.082031 -1.53125 7.132812 -1.636719 7.1875 -1.742188 C 7.238281 -1.847656 7.292969 -1.953125 7.34375 -2.007812 C 7.34375 -1.847656 7.34375 -1.742188 7.292969 -1.691406 C 7.398438 -1.742188 7.503906 -1.953125 7.609375 -2.324219 C 7.714844 -2.695312 7.820312 -3.117188 7.925781 -3.59375 C 8.03125 -4.070312 8.085938 -4.542969 8.136719 -5.019531 C 8.191406 -5.496094 8.191406 -5.917969 8.191406 -6.234375 C 8.191406 -6.289062 8.191406 -6.339844 8.191406 -6.394531 C 8.191406 -6.445312 8.191406 -6.5 8.191406 -6.550781 C 8.191406 -6.605469 8.242188 -6.710938 8.296875 -6.867188 C 8.347656 -7.027344 8.402344 -7.1875 8.402344 -7.34375 L 8.507812 -7.238281 C 8.558594 -7.714844 8.71875 -8.242188 8.980469 -8.875 C 9.246094 -9.511719 9.5625 -10.304688 9.933594 -11.308594 C 9.878906 -11.253906 9.828125 -11.203125 9.773438 -11.148438 L 9.878906 -11.042969 C 9.878906 -10.988281 9.828125 -10.9375 9.722656 -10.832031 C 9.667969 -10.988281 9.617188 -11.097656 9.617188 -11.148438 C 9.617188 -11.203125 9.617188 -11.253906 9.617188 -11.308594 C 9.617188 -11.359375 9.617188 -11.414062 9.617188 -11.464844 C 9.667969 -11.464844 9.722656 -11.519531 9.828125 -11.675781 C 9.933594 -11.835938 10.039062 -11.996094 10.144531 -12.207031 C 10.25 -12.417969 10.355469 -12.574219 10.460938 -12.734375 C 10.566406 -12.890625 10.671875 -12.945312 10.832031 -12.945312 L 10.726562 -13.050781 L 11.042969 -13.683594 C 11.097656 -13.683594 11.097656 -13.683594 11.097656 -13.632812 C 11.148438 -13.683594 11.203125 -13.738281 11.203125 -13.789062 C 11.203125 -13.84375 11.253906 -13.894531 11.308594 -13.949219 L 11.414062 -13.894531 C 11.359375 -13.84375 11.308594 -13.789062 11.308594 -13.738281 C 11.308594 -13.632812 11.359375 -13.578125 11.464844 -13.527344 C 11.414062 -13.527344 11.359375 -13.527344 11.308594 -13.527344 C 11.253906 -13.527344 11.203125 -13.527344 11.148438 -13.527344 C 11.097656 -13.472656 11.097656 -13.421875 11.148438 -13.421875 C 11.203125 -13.421875 11.253906 -13.421875 11.308594 -13.421875 C 11.253906 -13.316406 11.203125 -13.261719 11.148438 -13.261719 L 11.097656 -13.316406 C 11.042969 -13.316406 10.988281 -13.316406 10.9375 -13.367188 C 10.9375 -13.210938 10.988281 -13.105469 11.148438 -13.105469 L 11.042969 -12.890625 L 10.9375 -12.679688 L 10.988281 -12.628906 C 11.253906 -13.105469 11.464844 -13.578125 11.675781 -14.054688 C 11.886719 -14.53125 12.152344 -14.953125 12.46875 -15.324219 C 12.945312 -15.796875 13.316406 -16.167969 13.578125 -16.484375 C 13.84375 -16.800781 14.109375 -17.066406 14.371094 -17.332031 C 14.636719 -17.59375 14.898438 -17.859375 15.164062 -18.125 C 15.429688 -18.386719 15.746094 -18.703125 16.167969 -19.074219 C 16.539062 -19.601562 16.855469 -20.027344 17.121094 -20.34375 C 17.382812 -20.660156 17.648438 -20.976562 17.910156 -21.292969 C 18.175781 -21.609375 18.492188 -21.925781 18.863281 -22.296875 C 19.234375 -22.667969 19.761719 -23.144531 20.394531 -23.777344 C 20.554688 -24.042969 20.710938 -24.304688 20.921875 -24.570312 C 21.136719 -24.832031 21.398438 -25.046875 21.769531 -25.257812 C 22.140625 -25.46875 22.613281 -25.625 23.25 -25.730469 C 23.882812 -25.835938 24.675781 -25.890625 25.625 -25.890625 C 25.941406 -25.890625 26.3125 -25.785156 26.789062 -25.625 C 27.265625 -25.46875 27.582031 -25.363281 27.792969 -25.363281 C 27.898438 -25.363281 28.003906 -25.46875 28.109375 -25.679688 C 28.214844 -25.890625 28.269531 -26.050781 28.269531 -26.101562 C 28.269531 -26.261719 28.214844 -26.417969 28.164062 -26.628906 C 28.109375 -26.839844 28.003906 -27.054688 27.898438 -27.265625 C 27.792969 -27.476562 27.632812 -27.6875 27.476562 -27.84375 C 27.316406 -28.003906 27.105469 -28.058594 26.894531 -28.058594 L 26.734375 -28.058594 C 26.523438 -28.109375 26.3125 -28.164062 26.15625 -28.214844 C 25.996094 -28.269531 25.835938 -28.269531 25.679688 -28.269531 L 25.414062 -28.269531 C 25.203125 -28.269531 24.992188 -28.269531 24.78125 -28.269531 C 24.570312 -28.269531 24.304688 -28.269531 24.042969 -28.269531 L 23.355469 -28.269531 C 21.136719 -27.898438 19.179688 -27.421875 17.542969 -26.894531 C 15.902344 -26.367188 14.371094 -25.574219 13 -24.570312 C 12.839844 -24.464844 12.523438 -24.253906 12.046875 -23.933594 C 11.570312 -23.617188 11.042969 -23.195312 10.460938 -22.71875 C 9.878906 -22.246094 9.246094 -21.714844 8.613281 -21.136719 C 7.976562 -20.554688 7.398438 -19.867188 6.867188 -19.128906 C 6.710938 -18.863281 6.605469 -18.703125 6.550781 -18.652344 C 6.5 -18.597656 6.394531 -18.492188 6.289062 -18.386719 C 6.183594 -18.28125 6.023438 -18.070312 5.8125 -17.753906 C 5.601562 -17.4375 5.230469 -16.90625 4.753906 -16.167969 C 4.492188 -15.746094 4.226562 -15.269531 4.015625 -14.742188 C 3.804688 -14.214844 3.59375 -13.789062 3.328125 -13.421875 C 3.171875 -13.261719 2.957031 -12.890625 2.695312 -12.257812 C 2.429688 -11.625 2.21875 -10.882812 2.007812 -10.039062 C 1.796875 -9.195312 1.585938 -8.242188 1.425781 -7.238281 C 1.269531 -6.234375 1.164062 -5.335938 1.164062 -4.492188 C 1.164062 -3.855469 1.269531 -3.222656 1.480469 -2.589844 C 1.691406 -1.953125 1.953125 -1.320312 2.273438 -0.738281 C 2.589844 -0.160156 2.90625 0.316406 3.277344 0.6875 C 3.644531 1.058594 3.960938 1.320312 4.28125 1.480469 C 4.332031 1.53125 4.542969 1.636719 4.859375 1.796875 C 5.179688 1.953125 5.601562 2.113281 6.078125 2.273438 C 6.550781 2.429688 7.082031 2.589844 7.660156 2.695312 C 8.242188 2.800781 8.824219 2.851562 9.40625 2.851562 C 9.722656 2.851562 10.039062 2.851562 10.355469 2.800781 C 10.671875 2.746094 10.988281 2.746094 11.359375 2.746094 C 11.359375 2.695312 11.203125 2.640625 10.9375 2.640625 L 10.199219 2.640625 C 10.25 2.484375 10.304688 2.429688 10.355469 2.429688 L 10.566406 2.535156 L 10.671875 2.324219 C 10.726562 2.378906 10.777344 2.484375 10.832031 2.640625 C 10.882812 2.589844 10.9375 2.535156 10.9375 2.484375 C 10.9375 2.429688 10.988281 2.378906 11.042969 2.324219 C 11.097656 2.378906 11.097656 2.429688 11.097656 2.484375 C 11.097656 2.535156 11.097656 2.589844 11.148438 2.640625 C 11.308594 2.589844 11.464844 2.535156 11.625 2.429688 C 11.625 2.535156 11.625 2.589844 11.570312 2.589844 C 11.519531 2.589844 11.519531 2.640625 11.519531 2.695312 L 13.578125 2.0625 L 13.527344 2.007812 C 13.632812 1.902344 13.789062 1.847656 13.949219 1.847656 C 14.109375 1.847656 14.214844 1.902344 14.320312 2.007812 C 14.425781 1.953125 14.53125 1.902344 14.6875 1.847656 C 14.742188 1.902344 14.742188 1.953125 14.742188 1.953125 C 14.742188 1.953125 14.742188 2.007812 14.792969 2.0625 C 14.953125 2.007812 15.113281 1.902344 15.269531 1.796875 C 15.429688 1.691406 15.585938 1.585938 15.746094 1.53125 C 15.902344 1.480469 16.222656 1.320312 16.75 1.109375 C 17.277344 0.898438 17.648438 0.6875 17.910156 0.421875 C 17.964844 0.476562 18.019531 0.632812 18.070312 0.84375 C 18.125 1.058594 18.125 1.269531 18.125 1.53125 L 18.125 2.957031 C 18.070312 3.222656 18.019531 3.539062 18.019531 3.855469 C 18.019531 4.175781 18.019531 4.4375 18.019531 4.703125 L 18.070312 4.964844 C 18.125 5.125 18.28125 5.285156 18.546875 5.496094 C 18.808594 5.707031 19.234375 5.863281 19.8125 6.023438 C 20.394531 6.183594 21.1875 6.234375 22.191406 6.234375 C 22.246094 6.234375 22.296875 6.234375 22.351562 6.234375 C 22.402344 6.234375 22.457031 6.234375 22.507812 6.234375 L 22.878906 6.234375 C 23.089844 6.234375 23.300781 6.234375 23.566406 6.234375 C 23.828125 6.234375 24.042969 6.183594 24.253906 6.128906 C 24.464844 6.078125 24.570312 5.96875 24.570312 5.8125 C 24.570312 5.652344 24.515625 5.546875 24.410156 5.496094 C 24.304688 5.441406 24.253906 5.335938 24.253906 5.179688 L 24.253906 5.125 C 24.304688 5.179688 24.304688 5.179688 24.199219 5.125 C 24.09375 5.074219 23.933594 5.019531 23.777344 4.914062 C 23.617188 4.808594 23.460938 4.703125 23.300781 4.597656 C 23.144531 4.492188 23.089844 4.386719 23.089844 4.332031 C 23.089844 4.28125 23.089844 4.226562 23.144531 4.175781 C 23.195312 4.226562 23.300781 4.226562 23.40625 4.226562 C 23.460938 4.226562 23.511719 4.175781 23.617188 4.070312 C 23.722656 3.960938 23.777344 3.855469 23.828125 3.75 C 23.671875 3.644531 23.566406 3.539062 23.566406 3.433594 C 23.566406 3.382812 23.566406 3.277344 23.617188 3.171875 C 23.671875 3.066406 23.722656 2.957031 23.777344 2.90625 C 23.777344 2.800781 23.882812 2.589844 24.09375 2.273438 C 24.304688 1.953125 24.410156 1.585938 24.410156 1.214844 C 24.410156 1.164062 24.410156 1.109375 24.410156 1.058594 C 24.410156 1.003906 24.410156 0.949219 24.410156 0.898438 C 24.410156 0.738281 24.464844 0.582031 24.570312 0.371094 C 24.675781 0.160156 24.78125 -0.0546875 24.832031 -0.265625 C 24.78125 -0.316406 24.726562 -0.421875 24.726562 -0.582031 C 24.726562 -0.632812 24.726562 -0.6875 24.726562 -0.738281 C 24.726562 -0.792969 24.726562 -0.84375 24.726562 -0.898438 L 24.726562 -1.003906 C 24.78125 -1.003906 24.832031 -1.003906 24.886719 -0.949219 C 24.886719 -1.164062 24.832031 -1.269531 24.78125 -1.214844 C 24.78125 -1.375 24.832031 -1.585938 24.9375 -1.847656 C 25.046875 -2.113281 25.097656 -2.378906 25.097656 -2.640625 C 25.097656 -2.695312 25.097656 -2.746094 25.097656 -2.800781 C 25.097656 -2.851562 25.097656 -2.90625 25.097656 -2.957031 C 25.097656 -3.328125 25.152344 -3.699219 25.308594 -4.015625 C 25.46875 -4.332031 25.519531 -4.648438 25.519531 -5.019531 C 25.519531 -4.859375 25.46875 -4.859375 25.414062 -5.019531 C 25.363281 -5.179688 25.257812 -5.390625 25.097656 -5.707031 C 24.9375 -6.023438 24.726562 -6.289062 24.464844 -6.550781 C 24.199219 -6.816406 23.882812 -6.921875 23.460938 -6.921875 L 23.40625 -6.921875 C 23.195312 -6.921875 22.929688 -6.972656 22.613281 -7.132812 C 22.296875 -7.292969 21.925781 -7.34375 21.558594 -7.34375 C 21.503906 -7.34375 21.398438 -7.34375 21.292969 -7.34375 C 21.1875 -7.34375 21.082031 -7.34375 21.03125 -7.34375 C 20.871094 -7.34375 20.710938 -7.398438 20.554688 -7.554688 C 20.5 -7.554688 20.34375 -7.554688 20.132812 -7.554688 C 19.917969 -7.554688 19.761719 -7.503906 19.65625 -7.449219 C 19.601562 -7.449219 19.550781 -7.449219 19.496094 -7.449219 C 19.445312 -7.449219 19.390625 -7.449219 19.339844 -7.449219 C 19.285156 -7.449219 19.234375 -7.449219 19.179688 -7.449219 C 19.128906 -7.449219 19.074219 -7.449219 19.023438 -7.449219 L 18.914062 -7.449219 C 18.546875 -7.449219 18.386719 -7.292969 18.386719 -6.972656 L 18.386719 -6.445312 C 18.386719 -6.183594 18.335938 -5.96875 18.28125 -5.863281 C 18.230469 -5.757812 18.175781 -5.601562 18.175781 -5.441406 C 18.175781 -5.335938 18.175781 -5.230469 18.175781 -5.125 C 18.175781 -5.019531 18.175781 -4.914062 18.175781 -4.808594 C 18.175781 -4.753906 18.175781 -4.648438 18.125 -4.542969 C 18.070312 -4.4375 18.070312 -4.332031 18.070312 -4.28125 C 18.070312 -4.175781 18.070312 -4.070312 18.070312 -3.960938 C 18.070312 -3.855469 18.070312 -3.75 18.070312 -3.699219 C 18.070312 -3.277344 18.070312 -2.851562 18.070312 -2.429688 C 18.070312 -2.007812 18.019531 -1.636719 17.964844 -1.269531 C 17.910156 -0.898438 17.753906 -0.582031 17.542969 -0.316406 C 17.332031 -0.0546875 17.015625 0.160156 16.644531 0.316406 C 16.484375 0.582031 16.117188 0.792969 15.535156 0.898438 C 14.953125 1.003906 14.476562 1.164062 14.109375 1.320312 C 13.527344 1.585938 12.785156 1.847656 11.886719 2.0625 C 10.988281 2.273438 10.199219 2.378906 9.511719 2.378906 C 9.246094 2.378906 8.980469 2.324219 8.664062 2.21875 C 8.347656 2.113281 8.03125 1.953125 7.714844 1.742188 C 7.398438 1.53125 7.132812 1.269531 6.921875 0.949219 C 6.710938 0.632812 6.605469 0.265625 6.605469 -0.210938 C 6.605469 -0.476562 6.65625 -0.6875 6.710938 -0.84375 Z M 8.085938 -10.988281 L 8.085938 -10.832031 C 8.085938 -10.726562 8.03125 -10.671875 7.871094 -10.671875 L 7.871094 -11.042969 C 7.925781 -11.042969 7.976562 -11.042969 8.03125 -10.988281 Z M 24.199219 4.859375 C 24.253906 4.859375 24.304688 4.753906 24.304688 4.492188 L 24.304688 3.855469 C 24.253906 4.015625 24.199219 4.175781 24.199219 4.332031 C 24.199219 4.492188 24.199219 4.648438 24.148438 4.808594 Z M 24.199219 4.859375 "/></g></g></g><g fill="rgb(0%, 0%, 0%)" fill-opacity="1"><g transform="translate(263.281253, 191.031269)"><g><path d="M 17.066406 -6.078125 C 17.121094 -6.078125 16.960938 -5.917969 16.644531 -5.601562 C 16.328125 -5.285156 15.957031 -4.964844 15.480469 -4.597656 C 15.007812 -4.226562 14.476562 -3.910156 13.894531 -3.59375 C 13.316406 -3.277344 12.785156 -3.117188 12.257812 -3.117188 C 12.101562 -3.117188 11.886719 -3.117188 11.675781 -3.171875 C 11.464844 -3.222656 11.253906 -3.277344 11.042969 -3.328125 C 10.832031 -3.382812 10.621094 -3.433594 10.460938 -3.539062 C 10.304688 -3.644531 10.199219 -3.75 10.199219 -3.855469 C 10.199219 -4.4375 10.355469 -4.964844 10.671875 -5.496094 C 10.988281 -6.023438 11.148438 -6.289062 11.148438 -6.339844 L 11.097656 -6.339844 C 11.042969 -6.394531 11.042969 -6.445312 11.042969 -6.550781 C 11.042969 -6.65625 11.042969 -6.816406 11.097656 -7.027344 C 11.148438 -7.238281 11.203125 -7.398438 11.253906 -7.503906 L 11.253906 -9.351562 C 11.253906 -9.933594 11.203125 -10.410156 11.097656 -10.777344 C 10.988281 -11.148438 10.832031 -11.464844 10.621094 -11.675781 C 10.410156 -11.886719 10.09375 -11.996094 9.667969 -11.996094 C 9.140625 -11.835938 8.769531 -11.675781 8.507812 -11.519531 C 8.242188 -11.359375 8.085938 -11.203125 7.976562 -11.042969 C 7.871094 -10.882812 7.765625 -10.726562 7.714844 -10.566406 C 7.660156 -10.410156 7.554688 -10.25 7.398438 -10.09375 C 7.238281 -10.304688 7.082031 -10.460938 6.921875 -10.621094 C 6.761719 -10.777344 6.605469 -10.882812 6.445312 -10.988281 C 6.289062 -11.097656 6.078125 -11.148438 5.863281 -11.148438 C 5.652344 -11.148438 5.441406 -11.097656 5.179688 -10.988281 C 4.914062 -10.882812 4.648438 -10.726562 4.4375 -10.566406 C 4.226562 -10.410156 4.015625 -10.25 3.855469 -10.09375 C 3.699219 -9.933594 3.59375 -9.828125 3.539062 -9.773438 C 2.484375 -8.71875 1.636719 -7.660156 1.058594 -6.65625 C 0.476562 -5.652344 0.0546875 -4.492188 -0.160156 -3.171875 C -0.210938 -3.011719 -0.265625 -2.90625 -0.265625 -2.851562 C -0.265625 -2.800781 -0.265625 -2.746094 -0.210938 -2.695312 C -0.316406 -2.589844 -0.371094 -2.378906 -0.371094 -2.0625 C -0.371094 0.210938 1.058594 1.375 3.960938 1.375 C 4.121094 1.375 4.226562 1.375 4.332031 1.320312 C 4.4375 1.269531 4.542969 1.269531 4.703125 1.269531 C 4.859375 1.269531 5.074219 1.269531 5.390625 1.269531 C 5.707031 1.269531 5.96875 1.269531 6.234375 1.269531 C 6.605469 1.269531 6.972656 1.164062 7.292969 0.898438 C 7.609375 0.632812 7.871094 0.371094 8.136719 0.0546875 C 8.402344 -0.265625 8.613281 -0.582031 8.769531 -0.898438 C 8.929688 -1.214844 9.035156 -1.425781 9.089844 -1.53125 C 9.246094 -1.796875 9.351562 -2.0625 9.457031 -2.273438 C 9.5625 -2.484375 9.667969 -2.746094 9.828125 -3.011719 C 9.773438 -2.957031 9.878906 -2.800781 10.199219 -2.589844 C 10.515625 -2.378906 10.726562 -2.273438 10.882812 -2.273438 C 10.988281 -2.273438 11.097656 -2.273438 11.148438 -2.324219 C 11.308594 -2.167969 11.414062 -2.113281 11.464844 -2.113281 C 11.519531 -2.113281 11.570312 -2.113281 11.625 -2.113281 C 11.675781 -2.113281 11.730469 -2.113281 11.78125 -2.113281 C 11.78125 -2.0625 11.730469 -2.0625 11.625 -2.0625 C 11.625 -2.007812 11.625 -2.007812 11.625 -2.007812 C 11.625 -2.007812 11.625 -2.007812 11.625 -1.953125 C 11.675781 -2.007812 11.78125 -2.007812 11.886719 -2.007812 C 11.996094 -2.007812 12.101562 -2.007812 12.207031 -2.0625 C 12.207031 -2.007812 12.207031 -1.953125 12.152344 -1.953125 C 12.101562 -1.953125 12.101562 -1.902344 12.101562 -1.847656 C 12.152344 -1.847656 12.3125 -1.847656 12.628906 -1.847656 C 12.945312 -1.847656 13.105469 -1.902344 13.105469 -2.007812 C 13.050781 -2.007812 13 -2.0625 13 -2.113281 C 13.050781 -2.0625 13.105469 -2.0625 13.15625 -2.0625 C 13.210938 -2.0625 13.261719 -2.0625 13.316406 -2.007812 L 13.367188 -2.113281 C 13.421875 -2.0625 13.472656 -2.0625 13.527344 -2.0625 L 13.632812 -2.0625 L 13.84375 -2.167969 L 13.949219 -2.273438 C 14.109375 -2.324219 14.265625 -2.429688 14.425781 -2.589844 C 14.742188 -2.800781 15.113281 -3.117188 15.535156 -3.539062 L 15.480469 -3.488281 C 15.851562 -3.75 16.273438 -4.070312 16.75 -4.492188 C 17.226562 -4.914062 17.4375 -5.285156 17.4375 -5.601562 C 17.4375 -5.863281 17.332031 -5.96875 17.066406 -5.96875 Z M 7.925781 -3.222656 C 7.765625 -3.066406 7.609375 -2.90625 7.503906 -2.746094 C 7.398438 -2.589844 7.238281 -2.429688 7.082031 -2.273438 L 6.921875 -2.589844 C 6.921875 -2.800781 6.972656 -3.066406 7.132812 -3.433594 C 7.292969 -3.804688 7.34375 -4.121094 7.34375 -4.386719 C 7.34375 -4.914062 7.238281 -5.441406 7.082031 -6.023438 C 6.921875 -6.605469 6.816406 -7.132812 6.816406 -7.609375 C 6.867188 -7.660156 6.867188 -7.765625 6.867188 -7.925781 C 6.867188 -8.085938 6.867188 -8.242188 6.867188 -8.402344 C 6.867188 -8.558594 6.867188 -8.71875 6.867188 -8.875 C 6.867188 -9.140625 6.921875 -9.351562 7.027344 -9.511719 C 7.132812 -9.667969 7.292969 -9.773438 7.449219 -9.773438 C 7.398438 -9.722656 7.34375 -9.667969 7.34375 -9.617188 C 7.34375 -9.5625 7.398438 -9.457031 7.449219 -9.300781 C 7.503906 -9.140625 7.554688 -8.980469 7.554688 -8.824219 C 7.554688 -8.664062 7.554688 -8.507812 7.554688 -8.402344 C 7.554688 -8.296875 7.554688 -8.136719 7.554688 -7.976562 C 7.554688 -7.398438 7.714844 -6.816406 8.03125 -6.234375 C 8.347656 -5.652344 8.507812 -5.125 8.507812 -4.648438 C 8.453125 -4.492188 8.402344 -4.332031 8.347656 -4.175781 C 8.191406 -3.804688 8.136719 -3.59375 8.136719 -3.539062 Z M 9.722656 -6.921875 C 9.667969 -6.921875 9.667969 -6.921875 9.667969 -6.921875 C 9.667969 -6.921875 9.667969 -6.921875 9.617188 -6.921875 C 9.5625 -7.082031 9.511719 -7.1875 9.511719 -7.238281 C 9.511719 -7.34375 9.617188 -7.398438 9.773438 -7.398438 C 9.722656 -7.292969 9.722656 -7.1875 9.722656 -7.027344 Z M 9.722656 -6.921875 "/></g></g></g><g fill="rgb(0%, 0%, 0%)" fill-opacity="1"><g transform="translate(277.440717, 191.031269)"><g><path d="M 19.339844 -6.394531 C 19.285156 -6.394531 19.074219 -6.183594 18.703125 -5.707031 C 18.335938 -5.230469 17.910156 -4.703125 17.4375 -4.121094 C 16.960938 -3.539062 16.484375 -3.011719 16.011719 -2.484375 C 15.535156 -1.953125 15.21875 -1.636719 15.058594 -1.53125 C 15.058594 -1.585938 15.058594 -1.636719 15.113281 -1.691406 C 15.164062 -1.742188 15.164062 -1.796875 15.164062 -1.847656 C 15.164062 -2.429688 15.113281 -2.90625 15.007812 -3.277344 C 14.898438 -3.644531 14.742188 -3.960938 14.53125 -4.226562 C 14.320312 -4.492188 14.109375 -4.753906 13.894531 -5.019531 C 13.683594 -5.285156 13.472656 -5.601562 13.261719 -5.96875 C 13.261719 -6.023438 13.050781 -6.234375 12.679688 -6.605469 C 12.3125 -6.972656 11.886719 -7.34375 11.464844 -7.765625 C 11.042969 -8.191406 10.621094 -8.558594 10.25 -8.929688 C 9.878906 -9.300781 9.667969 -9.511719 9.667969 -9.5625 C 9.667969 -9.617188 9.667969 -9.617188 9.722656 -9.617188 C 9.722656 -9.511719 9.773438 -9.351562 9.878906 -9.195312 C 9.984375 -9.035156 10.09375 -8.875 10.144531 -8.769531 C 10.09375 -8.824219 9.984375 -8.980469 9.828125 -9.246094 C 9.667969 -9.511719 9.5625 -9.722656 9.5625 -9.878906 L 9.667969 -9.933594 C 9.617188 -10.039062 9.5625 -10.144531 9.511719 -10.25 C 9.457031 -10.355469 9.40625 -10.460938 9.351562 -10.566406 C 9.351562 -11.042969 9.40625 -11.519531 9.5625 -11.996094 C 9.722656 -12.46875 9.933594 -12.890625 10.199219 -13.261719 C 10.460938 -13.632812 10.726562 -13.949219 11.042969 -14.160156 C 11.359375 -14.371094 11.625 -14.476562 11.886719 -14.476562 C 12.046875 -14.476562 12.207031 -14.476562 12.363281 -14.425781 C 12.523438 -14.371094 12.679688 -14.371094 12.839844 -14.371094 C 13.105469 -14.371094 13.316406 -14.425781 13.472656 -14.53125 C 13.632812 -14.636719 13.683594 -14.742188 13.683594 -14.847656 C 13.683594 -15.324219 13.421875 -15.746094 12.839844 -16.117188 C 12.257812 -16.484375 11.730469 -16.644531 11.253906 -16.644531 C 10.039062 -16.644531 8.824219 -16.011719 7.609375 -14.742188 C 6.394531 -13.472656 5.019531 -11.464844 3.488281 -8.769531 C 2.90625 -7.765625 2.378906 -6.921875 1.953125 -6.289062 C 1.53125 -5.652344 1.164062 -5.179688 0.898438 -4.808594 C 0.527344 -4.4375 0.210938 -4.070312 -0.0546875 -3.75 C -0.265625 -3.488281 -0.476562 -3.222656 -0.632812 -2.957031 C -0.792969 -2.695312 -0.898438 -2.535156 -0.898438 -2.484375 C -0.898438 -2.429688 -0.84375 -2.378906 -0.792969 -2.324219 C -0.738281 -2.273438 -0.6875 -2.273438 -0.632812 -2.273438 C -0.527344 -2.273438 -0.371094 -2.324219 -0.210938 -2.484375 C -0.0546875 -2.640625 0.105469 -2.800781 0.316406 -3.011719 C 0.527344 -3.222656 0.738281 -3.433594 0.949219 -3.644531 C 1.164062 -3.855469 1.320312 -4.015625 1.425781 -4.121094 C 2.21875 -5.019531 3.011719 -6.128906 3.804688 -7.449219 C 4.597656 -8.769531 5.652344 -10.09375 6.972656 -11.414062 C 6.921875 -11.253906 6.921875 -10.988281 6.921875 -10.621094 C 6.921875 -9.773438 7.027344 -9.035156 7.1875 -8.453125 C 7.34375 -7.871094 7.503906 -7.34375 7.714844 -6.921875 C 7.925781 -6.5 8.085938 -6.128906 8.242188 -5.8125 C 8.402344 -5.496094 8.507812 -5.125 8.507812 -4.753906 C 8.507812 -3.855469 8.347656 -2.957031 8.085938 -2.0625 C 7.820312 -1.164062 7.554688 -0.371094 7.34375 0.316406 C 6.816406 0.265625 6.183594 0.210938 5.496094 0.160156 C 4.808594 0.105469 4.226562 -0.0546875 3.75 -0.316406 C 3.277344 -0.582031 2.800781 -0.738281 2.324219 -0.738281 C 2.007812 -0.738281 1.742188 -0.632812 1.53125 -0.476562 C 1.320312 -0.316406 1.214844 -0.105469 1.214844 0.160156 C 1.214844 0.265625 1.269531 0.421875 1.320312 0.632812 C 1.320312 0.6875 1.320312 0.738281 1.320312 0.792969 C 1.320312 0.84375 1.320312 0.898438 1.320312 0.949219 C 1.320312 1.425781 1.425781 1.847656 1.691406 2.273438 C 1.953125 2.695312 2.273438 3.066406 2.640625 3.382812 C 3.011719 3.699219 3.382812 3.960938 3.75 4.175781 C 4.121094 4.386719 4.4375 4.492188 4.703125 4.492188 C 5.8125 5.074219 6.867188 5.335938 7.871094 5.335938 C 8.875 5.335938 9.828125 5.074219 10.726562 4.597656 C 11.625 4.121094 12.257812 3.488281 12.628906 2.695312 C 12.890625 2.695312 13.105469 2.535156 13.261719 2.21875 C 13.210938 2.21875 13.15625 2.21875 13.105469 2.273438 C 13.105469 2.21875 13.105469 2.167969 13.050781 2.113281 C 13.316406 1.953125 13.472656 1.796875 13.472656 1.636719 C 13.472656 1.585938 13.472656 1.53125 13.421875 1.480469 C 13.894531 1.003906 14.160156 0.6875 14.214844 0.527344 C 14.265625 0.371094 14.265625 0.160156 14.265625 -0.105469 C 15.691406 -1.109375 17.121094 -2.746094 18.492188 -5.019531 C 18.757812 -5.390625 18.863281 -5.707031 18.863281 -5.96875 C 18.863281 -6.183594 18.808594 -6.289062 18.703125 -6.289062 Z M 5.496094 2.0625 C 4.914062 2.324219 4.386719 2.429688 3.910156 2.429688 C 3.539062 2.113281 3.171875 1.636719 2.746094 1.058594 L 2.90625 0.84375 C 3.910156 1.269531 5.019531 1.53125 6.183594 1.636719 C 6.078125 1.691406 5.96875 1.796875 5.863281 1.902344 C 5.757812 2.007812 5.652344 2.0625 5.496094 2.113281 Z M 10.304688 -7.714844 L 9.984375 -8.191406 C 10.25 -7.925781 10.515625 -7.609375 10.777344 -7.292969 C 11.042969 -6.972656 11.308594 -6.65625 11.570312 -6.394531 C 11.359375 -6.605469 11.148438 -6.816406 10.9375 -7.027344 C 10.726562 -7.238281 10.515625 -7.449219 10.355469 -7.609375 Z M 10.304688 -7.714844 "/></g></g></g><g fill="rgb(0%, 0%, 0%)" fill-opacity="1"><g transform="translate(293.660689, 191.031269)"><g><path d="M 19.339844 -6.394531 C 19.285156 -6.394531 19.074219 -6.183594 18.703125 -5.707031 C 18.335938 -5.230469 17.910156 -4.703125 17.4375 -4.121094 C 16.960938 -3.539062 16.484375 -3.011719 16.011719 -2.484375 C 15.535156 -1.953125 15.21875 -1.636719 15.058594 -1.53125 C 15.058594 -1.585938 15.058594 -1.636719 15.113281 -1.691406 C 15.164062 -1.742188 15.164062 -1.796875 15.164062 -1.847656 C 15.164062 -2.429688 15.113281 -2.90625 15.007812 -3.277344 C 14.898438 -3.644531 14.742188 -3.960938 14.53125 -4.226562 C 14.320312 -4.492188 14.109375 -4.753906 13.894531 -5.019531 C 13.683594 -5.285156 13.472656 -5.601562 13.261719 -5.96875 C 13.261719 -6.023438 13.050781 -6.234375 12.679688 -6.605469 C 12.3125 -6.972656 11.886719 -7.34375 11.464844 -7.765625 C 11.042969 -8.191406 10.621094 -8.558594 10.25 -8.929688 C 9.878906 -9.300781 9.667969 -9.511719 9.667969 -9.5625 C 9.667969 -9.617188 9.667969 -9.617188 9.722656 -9.617188 C 9.722656 -9.511719 9.773438 -9.351562 9.878906 -9.195312 C 9.984375 -9.035156 10.09375 -8.875 10.144531 -8.769531 C 10.09375 -8.824219 9.984375 -8.980469 9.828125 -9.246094 C 9.667969 -9.511719 9.5625 -9.722656 9.5625 -9.878906 L 9.667969 -9.933594 C 9.617188 -10.039062 9.5625 -10.144531 9.511719 -10.25 C 9.457031 -10.355469 9.40625 -10.460938 9.351562 -10.566406 C 9.351562 -11.042969 9.40625 -11.519531 9.5625 -11.996094 C 9.722656 -12.46875 9.933594 -12.890625 10.199219 -13.261719 C 10.460938 -13.632812 10.726562 -13.949219 11.042969 -14.160156 C 11.359375 -14.371094 11.625 -14.476562 11.886719 -14.476562 C 12.046875 -14.476562 12.207031 -14.476562 12.363281 -14.425781 C 12.523438 -14.371094 12.679688 -14.371094 12.839844 -14.371094 C 13.105469 -14.371094 13.316406 -14.425781 13.472656 -14.53125 C 13.632812 -14.636719 13.683594 -14.742188 13.683594 -14.847656 C 13.683594 -15.324219 13.421875 -15.746094 12.839844 -16.117188 C 12.257812 -16.484375 11.730469 -16.644531 11.253906 -16.644531 C 10.039062 -16.644531 8.824219 -16.011719 7.609375 -14.742188 C 6.394531 -13.472656 5.019531 -11.464844 3.488281 -8.769531 C 2.90625 -7.765625 2.378906 -6.921875 1.953125 -6.289062 C 1.53125 -5.652344 1.164062 -5.179688 0.898438 -4.808594 C 0.527344 -4.4375 0.210938 -4.070312 -0.0546875 -3.75 C -0.265625 -3.488281 -0.476562 -3.222656 -0.632812 -2.957031 C -0.792969 -2.695312 -0.898438 -2.535156 -0.898438 -2.484375 C -0.898438 -2.429688 -0.84375 -2.378906 -0.792969 -2.324219 C -0.738281 -2.273438 -0.6875 -2.273438 -0.632812 -2.273438 C -0.527344 -2.273438 -0.371094 -2.324219 -0.210938 -2.484375 C -0.0546875 -2.640625 0.105469 -2.800781 0.316406 -3.011719 C 0.527344 -3.222656 0.738281 -3.433594 0.949219 -3.644531 C 1.164062 -3.855469 1.320312 -4.015625 1.425781 -4.121094 C 2.21875 -5.019531 3.011719 -6.128906 3.804688 -7.449219 C 4.597656 -8.769531 5.652344 -10.09375 6.972656 -11.414062 C 6.921875 -11.253906 6.921875 -10.988281 6.921875 -10.621094 C 6.921875 -9.773438 7.027344 -9.035156 7.1875 -8.453125 C 7.34375 -7.871094 7.503906 -7.34375 7.714844 -6.921875 C 7.925781 -6.5 8.085938 -6.128906 8.242188 -5.8125 C 8.402344 -5.496094 8.507812 -5.125 8.507812 -4.753906 C 8.507812 -3.855469 8.347656 -2.957031 8.085938 -2.0625 C 7.820312 -1.164062 7.554688 -0.371094 7.34375 0.316406 C 6.816406 0.265625 6.183594 0.210938 5.496094 0.160156 C 4.808594 0.105469 4.226562 -0.0546875 3.75 -0.316406 C 3.277344 -0.582031 2.800781 -0.738281 2.324219 -0.738281 C 2.007812 -0.738281 1.742188 -0.632812 1.53125 -0.476562 C 1.320312 -0.316406 1.214844 -0.105469 1.214844 0.160156 C 1.214844 0.265625 1.269531 0.421875 1.320312 0.632812 C 1.320312 0.6875 1.320312 0.738281 1.320312 0.792969 C 1.320312 0.84375 1.320312 0.898438 1.320312 0.949219 C 1.320312 1.425781 1.425781 1.847656 1.691406 2.273438 C 1.953125 2.695312 2.273438 3.066406 2.640625 3.382812 C 3.011719 3.699219 3.382812 3.960938 3.75 4.175781 C 4.121094 4.386719 4.4375 4.492188 4.703125 4.492188 C 5.8125 5.074219 6.867188 5.335938 7.871094 5.335938 C 8.875 5.335938 9.828125 5.074219 10.726562 4.597656 C 11.625 4.121094 12.257812 3.488281 12.628906 2.695312 C 12.890625 2.695312 13.105469 2.535156 13.261719 2.21875 C 13.210938 2.21875 13.15625 2.21875 13.105469 2.273438 C 13.105469 2.21875 13.105469 2.167969 13.050781 2.113281 C 13.316406 1.953125 13.472656 1.796875 13.472656 1.636719 C 13.472656 1.585938 13.472656 1.53125 13.421875 1.480469 C 13.894531 1.003906 14.160156 0.6875 14.214844 0.527344 C 14.265625 0.371094 14.265625 0.160156 14.265625 -0.105469 C 15.691406 -1.109375 17.121094 -2.746094 18.492188 -5.019531 C 18.757812 -5.390625 18.863281 -5.707031 18.863281 -5.96875 C 18.863281 -6.183594 18.808594 -6.289062 18.703125 -6.289062 Z M 5.496094 2.0625 C 4.914062 2.324219 4.386719 2.429688 3.910156 2.429688 C 3.539062 2.113281 3.171875 1.636719 2.746094 1.058594 L 2.90625 0.84375 C 3.910156 1.269531 5.019531 1.53125 6.183594 1.636719 C 6.078125 1.691406 5.96875 1.796875 5.863281 1.902344 C 5.757812 2.007812 5.652344 2.0625 5.496094 2.113281 Z M 10.304688 -7.714844 L 9.984375 -8.191406 C 10.25 -7.925781 10.515625 -7.609375 10.777344 -7.292969 C 11.042969 -6.972656 11.308594 -6.65625 11.570312 -6.394531 C 11.359375 -6.605469 11.148438 -6.816406 10.9375 -7.027344 C 10.726562 -7.238281 10.515625 -7.449219 10.355469 -7.609375 Z M 10.304688 -7.714844 "/></g></g></g></svg>